<svg width="296" height="301" viewBox="0 0 296 301" fill="none" xmlns="http://www.w3.org/2000/svg">
<rect width="296" height="301" fill="#1E1E1E"/>
<rect width="525" height="495" fill="#9CBCC7"/>
<rect width="525" height="61" fill="#5570FA"/>
<path d="M26.6591 24.9091C26.5568 24.0455 26.142 23.375 25.4148 22.8977C24.6875 22.4205 23.7955 22.1818 22.7386 22.1818C21.9659 22.1818 21.2898 22.3068 20.7102 22.5568C20.1364 22.8068 19.6875 23.1506 19.3636 23.5881C19.0455 24.0256 18.8864 24.5227 18.8864 25.0795C18.8864 25.5455 18.9972 25.946 19.2188 26.2812C19.446 26.6108 19.7358 26.8864 20.0881 27.108C20.4403 27.3239 20.8097 27.5028 21.196 27.6449C21.5824 27.7812 21.9375 27.892 22.2614 27.9773L24.0341 28.4545C24.4886 28.5739 24.9943 28.7386 25.5511 28.9489C26.1136 29.1591 26.6506 29.446 27.1619 29.8097C27.679 30.1676 28.1051 30.6278 28.4403 31.1903C28.7756 31.7528 28.9432 32.4432 28.9432 33.2614C28.9432 34.2045 28.696 35.0568 28.2017 35.8182C27.7131 36.5795 26.9972 37.1847 26.054 37.6335C25.1165 38.0824 23.9773 38.3068 22.6364 38.3068C21.3864 38.3068 20.304 38.1051 19.3892 37.7017C18.4801 37.2983 17.7642 36.7358 17.2415 36.0142C16.7244 35.2926 16.4318 34.4545 16.3636 33.5H18.5455C18.6023 34.1591 18.8239 34.7045 19.2102 35.1364C19.6023 35.5625 20.0966 35.8807 20.6932 36.0909C21.2955 36.2955 21.9432 36.3977 22.6364 36.3977C23.4432 36.3977 24.1676 36.267 24.8097 36.0057C25.4517 35.7386 25.9602 35.3693 26.3352 34.8977C26.7102 34.4205 26.8977 33.8636 26.8977 33.2273C26.8977 32.6477 26.7358 32.1761 26.4119 31.8125C26.0881 31.4489 25.6619 31.1534 25.1335 30.9261C24.6051 30.6989 24.0341 30.5 23.4205 30.3295L21.2727 29.7159C19.9091 29.3239 18.8295 28.7642 18.0341 28.0369C17.2386 27.3097 16.8409 26.358 16.8409 25.1818C16.8409 24.2045 17.1051 23.3523 17.6335 22.625C18.1676 21.892 18.8835 21.3239 19.7812 20.9205C20.6847 20.5114 21.6932 20.3068 22.8068 20.3068C23.9318 20.3068 24.9318 20.5085 25.8068 20.9119C26.6818 21.3097 27.375 21.8551 27.8864 22.5483C28.4034 23.2415 28.6761 24.0284 28.7045 24.9091H26.6591ZM32.4183 38V20.5455H42.9524V22.4205H34.532V28.3182H42.407V30.1932H34.532V36.125H43.0888V38H32.4183ZM45.8075 22.4205V20.5455H58.8984V22.4205H53.4098V38H51.2962V22.4205H45.8075ZM62.1605 38V20.5455H72.6946V22.4205H64.2741V28.3182H72.1491V30.1932H64.2741V36.125H72.831V38H62.1605ZM76.5043 20.5455H79.027L84.9588 35.0341H85.1634L91.0952 20.5455H93.6179V38H91.6406V24.7386H91.4702L86.0156 38H84.1065L78.652 24.7386H78.4815V38H76.5043V20.5455ZM97.8558 38V20.5455H103.958C105.174 20.5455 106.177 20.7557 106.967 21.1761C107.756 21.5909 108.344 22.1506 108.731 22.8551C109.117 23.554 109.31 24.3295 109.31 25.1818C109.31 25.9318 109.177 26.5511 108.91 27.0398C108.648 27.5284 108.302 27.9148 107.87 28.1989C107.444 28.483 106.981 28.6932 106.481 28.8295V29C107.015 29.0341 107.552 29.2216 108.092 29.5625C108.631 29.9034 109.083 30.392 109.447 31.0284C109.81 31.6648 109.992 32.4432 109.992 33.3636C109.992 34.2386 109.793 35.0256 109.396 35.7244C108.998 36.4233 108.37 36.9773 107.512 37.3864C106.654 37.7955 105.538 38 104.163 38H97.8558ZM99.9695 36.125H104.163C105.543 36.125 106.523 35.858 107.103 35.3239C107.688 34.7841 107.981 34.1307 107.981 33.3636C107.981 32.7727 107.83 32.2273 107.529 31.7273C107.228 31.2216 106.799 30.8182 106.242 30.517C105.685 30.2102 105.026 30.0568 104.265 30.0568H99.9695V36.125ZM99.9695 28.2159H103.89C104.526 28.2159 105.1 28.0909 105.612 27.8409C106.129 27.5909 106.538 27.2386 106.839 26.7841C107.146 26.3295 107.299 25.7955 107.299 25.1818C107.299 24.4148 107.032 23.7642 106.498 23.2301C105.964 22.6903 105.117 22.4205 103.958 22.4205H99.9695V28.2159ZM113.465 38V20.5455H119.363C120.727 20.5455 121.846 20.7784 122.721 21.2443C123.596 21.7045 124.244 22.3381 124.664 23.1449C125.085 23.9517 125.295 24.8693 125.295 25.8977C125.295 26.9261 125.085 27.8381 124.664 28.6335C124.244 29.429 123.599 30.054 122.729 30.5085C121.86 30.9574 120.749 31.1818 119.397 31.1818H114.624V29.2727H119.329C120.261 29.2727 121.011 29.1364 121.579 28.8636C122.153 28.5909 122.567 28.2045 122.823 27.7045C123.085 27.1989 123.215 26.5966 123.215 25.8977C123.215 25.1989 123.085 24.5881 122.823 24.0653C122.562 23.5426 122.144 23.1392 121.57 22.8551C120.996 22.5653 120.238 22.4205 119.295 22.4205H115.579V38H113.465ZM121.681 30.1591L125.977 38H123.522L119.295 30.1591H121.681ZM143.544 29.2727C143.544 31.1136 143.212 32.7045 142.547 34.0455C141.882 35.3864 140.97 36.4205 139.811 37.1477C138.652 37.875 137.328 38.2386 135.839 38.2386C134.351 38.2386 133.027 37.875 131.868 37.1477C130.709 36.4205 129.797 35.3864 129.132 34.0455C128.467 32.7045 128.135 31.1136 128.135 29.2727C128.135 27.4318 128.467 25.8409 129.132 24.5C129.797 23.1591 130.709 22.125 131.868 21.3977C133.027 20.6705 134.351 20.3068 135.839 20.3068C137.328 20.3068 138.652 20.6705 139.811 21.3977C140.97 22.125 141.882 23.1591 142.547 24.5C143.212 25.8409 143.544 27.4318 143.544 29.2727ZM141.499 29.2727C141.499 27.7614 141.246 26.4858 140.74 25.446C140.24 24.4062 139.561 23.6193 138.703 23.0852C137.851 22.5511 136.896 22.2841 135.839 22.2841C134.783 22.2841 133.825 22.5511 132.967 23.0852C132.115 23.6193 131.436 24.4062 130.93 25.446C130.43 26.4858 130.18 27.7614 130.18 29.2727C130.18 30.7841 130.43 32.0597 130.93 33.0994C131.436 34.1392 132.115 34.9261 132.967 35.4602C133.825 35.9943 134.783 36.2614 135.839 36.2614C136.896 36.2614 137.851 35.9943 138.703 35.4602C139.561 34.9261 140.24 34.1392 140.74 33.0994C141.246 32.0597 141.499 30.7841 141.499 29.2727Z" fill="white"/>
<line x1="27.0011" y1="109.5" x2="497.001" y2="110.504" stroke="white"/>
<rect x="29" y="128" width="59" height="62" rx="2" fill="#D9D9D9"/>
<path d="M61.1374 137.545V155H57.4471V141.048H57.3448L53.3477 143.554V140.281L57.6687 137.545H61.1374Z" fill="#FF0000"/>
<rect x="32" y="164" width="53" height="10" rx="1" fill="#A8ABAB"/>
<path d="M50.2166 172V166.182H52.5121C52.9534 166.182 53.3293 166.266 53.6399 166.435C53.9505 166.601 54.1873 166.833 54.3501 167.131C54.5149 167.426 54.5973 167.767 54.5973 168.153C54.5973 168.54 54.514 168.881 54.3473 169.176C54.1806 169.472 53.9392 169.702 53.6229 169.866C53.3085 170.031 52.9278 170.114 52.4808 170.114H51.0178V169.128H52.282C52.5187 169.128 52.7138 169.087 52.8672 169.006C53.0225 168.922 53.138 168.808 53.2138 168.662C53.2914 168.514 53.3303 168.345 53.3303 168.153C53.3303 167.96 53.2914 167.792 53.2138 167.648C53.138 167.502 53.0225 167.389 52.8672 167.31C52.7119 167.228 52.5149 167.188 52.2763 167.188H51.4467V172H50.2166ZM55.3963 172V166.182H59.3168V167.196H56.6264V168.582H59.1151V169.597H56.6264V170.986H59.3281V172H55.3963ZM63.451 167.855C63.4283 167.626 63.3307 167.448 63.1584 167.321C62.986 167.194 62.7521 167.131 62.4567 167.131C62.2559 167.131 62.0864 167.159 61.9482 167.216C61.8099 167.271 61.7038 167.348 61.63 167.446C61.558 167.545 61.522 167.656 61.522 167.781C61.5182 167.885 61.54 167.976 61.5874 168.054C61.6366 168.132 61.7038 168.199 61.7891 168.256C61.8743 168.311 61.9728 168.359 62.0845 168.401C62.1963 168.44 62.3156 168.474 62.4425 168.503L62.9652 168.628C63.219 168.685 63.4519 168.76 63.6641 168.855C63.8762 168.95 64.0599 169.066 64.2152 169.205C64.3705 169.343 64.4908 169.506 64.576 169.693C64.6631 169.881 64.7076 170.096 64.7095 170.338C64.7076 170.694 64.6167 171.003 64.4368 171.264C64.2588 171.524 64.0012 171.725 63.6641 171.869C63.3288 172.011 62.9245 172.082 62.451 172.082C61.9813 172.082 61.5722 172.01 61.2237 171.866C60.8771 171.723 60.6063 171.509 60.4112 171.227C60.218 170.943 60.1167 170.592 60.1072 170.173H61.2976C61.3108 170.368 61.3667 170.531 61.4652 170.662C61.5656 170.791 61.6991 170.888 61.8658 170.955C62.0343 171.019 62.2247 171.051 62.4368 171.051C62.6451 171.051 62.826 171.021 62.9794 170.96C63.1347 170.9 63.255 170.815 63.3402 170.707C63.4254 170.599 63.468 170.475 63.468 170.335C63.468 170.205 63.4292 170.095 63.3516 170.006C63.2758 169.917 63.1641 169.841 63.0163 169.778C62.8705 169.716 62.6915 169.659 62.4794 169.608L61.8459 169.449C61.3554 169.33 60.968 169.143 60.6839 168.889C60.3999 168.635 60.2588 168.294 60.2607 167.864C60.2588 167.511 60.3525 167.204 60.5419 166.94C60.7332 166.677 60.9955 166.472 61.3288 166.324C61.6622 166.176 62.041 166.102 62.4652 166.102C62.897 166.102 63.2739 166.176 63.5959 166.324C63.9197 166.472 64.1716 166.677 64.3516 166.94C64.5315 167.204 64.6243 167.509 64.63 167.855H63.451ZM70.8835 169.091C70.8835 169.725 70.7633 170.265 70.5227 170.71C70.2841 171.155 69.9583 171.495 69.5455 171.73C69.1345 171.963 68.6723 172.08 68.1591 172.08C67.642 172.08 67.178 171.962 66.767 171.727C66.3561 171.492 66.0313 171.152 65.7926 170.707C65.554 170.262 65.4347 169.723 65.4347 169.091C65.4347 168.456 65.554 167.917 65.7926 167.472C66.0313 167.027 66.3561 166.687 66.767 166.455C67.178 166.22 67.642 166.102 68.1591 166.102C68.6723 166.102 69.1345 166.22 69.5455 166.455C69.9583 166.687 70.2841 167.027 70.5227 167.472C70.7633 167.917 70.8835 168.456 70.8835 169.091ZM69.6364 169.091C69.6364 168.68 69.5748 168.333 69.4517 168.051C69.3305 167.769 69.1591 167.555 68.9375 167.409C68.7159 167.263 68.4564 167.19 68.1591 167.19C67.8617 167.19 67.6023 167.263 67.3807 167.409C67.1591 167.555 66.9867 167.769 66.8636 168.051C66.7424 168.333 66.6818 168.68 66.6818 169.091C66.6818 169.502 66.7424 169.848 66.8636 170.131C66.9867 170.413 67.1591 170.627 67.3807 170.773C67.6023 170.919 67.8617 170.991 68.1591 170.991C68.4564 170.991 68.7159 170.919 68.9375 170.773C69.1591 170.627 69.3305 170.413 69.4517 170.131C69.5748 169.848 69.6364 169.502 69.6364 169.091Z" fill="black"/>
<path d="M50.2166 172V166.182H52.5121C52.9534 166.182 53.3293 166.266 53.6399 166.435C53.9505 166.601 54.1873 166.833 54.3501 167.131C54.5149 167.426 54.5973 167.767 54.5973 168.153C54.5973 168.54 54.514 168.881 54.3473 169.176C54.1806 169.472 53.9392 169.702 53.6229 169.866C53.3085 170.031 52.9278 170.114 52.4808 170.114H51.0178V169.128H52.282C52.5187 169.128 52.7138 169.087 52.8672 169.006C53.0225 168.922 53.138 168.808 53.2138 168.662C53.2914 168.514 53.3303 168.345 53.3303 168.153C53.3303 167.96 53.2914 167.792 53.2138 167.648C53.138 167.502 53.0225 167.389 52.8672 167.31C52.7119 167.228 52.5149 167.188 52.2763 167.188H51.4467V172H50.2166ZM55.3963 172V166.182H59.3168V167.196H56.6264V168.582H59.1151V169.597H56.6264V170.986H59.3281V172H55.3963ZM63.451 167.855C63.4283 167.626 63.3307 167.448 63.1584 167.321C62.986 167.194 62.7521 167.131 62.4567 167.131C62.2559 167.131 62.0864 167.159 61.9482 167.216C61.8099 167.271 61.7038 167.348 61.63 167.446C61.558 167.545 61.522 167.656 61.522 167.781C61.5182 167.885 61.54 167.976 61.5874 168.054C61.6366 168.132 61.7038 168.199 61.7891 168.256C61.8743 168.311 61.9728 168.359 62.0845 168.401C62.1963 168.44 62.3156 168.474 62.4425 168.503L62.9652 168.628C63.219 168.685 63.4519 168.76 63.6641 168.855C63.8762 168.95 64.0599 169.066 64.2152 169.205C64.3705 169.343 64.4908 169.506 64.576 169.693C64.6631 169.881 64.7076 170.096 64.7095 170.338C64.7076 170.694 64.6167 171.003 64.4368 171.264C64.2588 171.524 64.0012 171.725 63.6641 171.869C63.3288 172.011 62.9245 172.082 62.451 172.082C61.9813 172.082 61.5722 172.01 61.2237 171.866C60.8771 171.723 60.6063 171.509 60.4112 171.227C60.218 170.943 60.1167 170.592 60.1072 170.173H61.2976C61.3108 170.368 61.3667 170.531 61.4652 170.662C61.5656 170.791 61.6991 170.888 61.8658 170.955C62.0343 171.019 62.2247 171.051 62.4368 171.051C62.6451 171.051 62.826 171.021 62.9794 170.96C63.1347 170.9 63.255 170.815 63.3402 170.707C63.4254 170.599 63.468 170.475 63.468 170.335C63.468 170.205 63.4292 170.095 63.3516 170.006C63.2758 169.917 63.1641 169.841 63.0163 169.778C62.8705 169.716 62.6915 169.659 62.4794 169.608L61.8459 169.449C61.3554 169.33 60.968 169.143 60.6839 168.889C60.3999 168.635 60.2588 168.294 60.2607 167.864C60.2588 167.511 60.3525 167.204 60.5419 166.94C60.7332 166.677 60.9955 166.472 61.3288 166.324C61.6622 166.176 62.041 166.102 62.4652 166.102C62.897 166.102 63.2739 166.176 63.5959 166.324C63.9197 166.472 64.1716 166.677 64.3516 166.94C64.5315 167.204 64.6243 167.509 64.63 167.855H63.451ZM70.8835 169.091C70.8835 169.725 70.7633 170.265 70.5227 170.71C70.2841 171.155 69.9583 171.495 69.5455 171.73C69.1345 171.963 68.6723 172.08 68.1591 172.08C67.642 172.08 67.178 171.962 66.767 171.727C66.3561 171.492 66.0313 171.152 65.7926 170.707C65.554 170.262 65.4347 169.723 65.4347 169.091C65.4347 168.456 65.554 167.917 65.7926 167.472C66.0313 167.027 66.3561 166.687 66.767 166.455C67.178 166.22 67.642 166.102 68.1591 166.102C68.6723 166.102 69.1345 166.22 69.5455 166.455C69.9583 166.687 70.2841 167.027 70.5227 167.472C70.7633 167.917 70.8835 168.456 70.8835 169.091ZM69.6364 169.091C69.6364 168.68 69.5748 168.333 69.4517 168.051C69.3305 167.769 69.1591 167.555 68.9375 167.409C68.7159 167.263 68.4564 167.19 68.1591 167.19C67.8617 167.19 67.6023 167.263 67.3807 167.409C67.1591 167.555 66.9867 167.769 66.8636 168.051C66.7424 168.333 66.6818 168.68 66.6818 169.091C66.6818 169.502 66.7424 169.848 66.8636 170.131C66.9867 170.413 67.1591 170.627 67.3807 170.773C67.6023 170.919 67.8617 170.991 68.1591 170.991C68.4564 170.991 68.7159 170.919 68.9375 170.773C69.1591 170.627 69.3305 170.413 69.4517 170.131C69.5748 169.848 69.6364 169.502 69.6364 169.091Z" fill="black"/>
<rect x="32" y="176" width="53" height="10" rx="1" fill="#A8ABAB"/>
<path d="M54.0146 184.128C53.5259 184.126 53.1055 184.006 52.7532 183.767C52.4028 183.528 52.1329 183.183 51.9435 182.73C51.756 182.277 51.6632 181.733 51.6651 181.097C51.6651 180.462 51.7589 179.921 51.9464 179.474C52.1358 179.027 52.4057 178.687 52.756 178.455C53.1083 178.22 53.5278 178.102 54.0146 178.102C54.5013 178.102 54.9199 178.22 55.2702 178.455C55.6225 178.689 55.8933 179.03 56.0827 179.477C56.2721 179.922 56.3659 180.462 56.364 181.097C56.364 181.735 56.2693 182.28 56.0799 182.733C55.8924 183.186 55.6235 183.531 55.2731 183.77C54.9227 184.009 54.5032 184.128 54.0146 184.128ZM54.0146 183.108C54.3479 183.108 54.614 182.94 54.8129 182.605C55.0117 182.27 55.1102 181.767 55.1083 181.097C55.1083 180.655 55.0629 180.288 54.9719 179.994C54.8829 179.701 54.756 179.48 54.5913 179.332C54.4284 179.185 54.2362 179.111 54.0146 179.111C53.6831 179.111 53.418 179.277 53.2191 179.608C53.0202 179.939 52.9199 180.436 52.918 181.097C52.918 181.544 52.9625 181.917 53.0515 182.216C53.1424 182.513 53.2702 182.737 53.435 182.886C53.5998 183.034 53.793 183.108 54.0146 183.108ZM58.3335 183.205L58.3022 183.517C58.2776 183.767 58.2302 184.016 58.1602 184.264C58.092 184.514 58.02 184.741 57.9442 184.943C57.8704 185.146 57.8107 185.305 57.7653 185.42H56.9812C57.0096 185.309 57.0484 185.152 57.0977 184.952C57.1469 184.753 57.1933 184.529 57.2369 184.281C57.2804 184.033 57.3079 183.78 57.3192 183.523L57.3335 183.205H58.3335ZM61.4755 184.128C60.9869 184.126 60.5664 184.006 60.2141 183.767C59.8638 183.528 59.5939 183.183 59.4045 182.73C59.217 182.277 59.1242 181.733 59.1261 181.097C59.1261 180.462 59.2198 179.921 59.4073 179.474C59.5967 179.027 59.8666 178.687 60.217 178.455C60.5692 178.22 60.9888 178.102 61.4755 178.102C61.9622 178.102 62.3808 178.22 62.7312 178.455C63.0835 178.689 63.3543 179.03 63.5437 179.477C63.7331 179.922 63.8268 180.462 63.8249 181.097C63.8249 181.735 63.7302 182.28 63.5408 182.733C63.3533 183.186 63.0844 183.531 62.734 183.77C62.3836 184.009 61.9641 184.128 61.4755 184.128ZM61.4755 183.108C61.8088 183.108 62.0749 182.94 62.2738 182.605C62.4727 182.27 62.5711 181.767 62.5692 181.097C62.5692 180.655 62.5238 180.288 62.4329 179.994C62.3439 179.701 62.217 179.48 62.0522 179.332C61.8893 179.185 61.6971 179.111 61.4755 179.111C61.1441 179.111 60.8789 179.277 60.68 179.608C60.4812 179.939 60.3808 180.436 60.3789 181.097C60.3789 181.544 60.4234 181.917 60.5124 182.216C60.6033 182.513 60.7312 182.737 60.896 182.886C61.0607 183.034 61.2539 183.108 61.4755 183.108ZM66.9833 184.128C66.4947 184.126 66.0742 184.006 65.7219 183.767C65.3716 183.528 65.1017 183.183 64.9123 182.73C64.7248 182.277 64.632 181.733 64.6339 181.097C64.6339 180.462 64.7276 179.921 64.9151 179.474C65.1045 179.027 65.3744 178.687 65.7248 178.455C66.0771 178.22 66.4966 178.102 66.9833 178.102C67.4701 178.102 67.8886 178.22 68.239 178.455C68.5913 178.689 68.8621 179.03 69.0515 179.477C69.2409 179.922 69.3346 180.462 69.3327 181.097C69.3327 181.735 69.238 182.28 69.0487 182.733C68.8612 183.186 68.5922 183.531 68.2418 183.77C67.8915 184.009 67.4719 184.128 66.9833 184.128ZM66.9833 183.108C67.3166 183.108 67.5827 182.94 67.7816 182.605C67.9805 182.27 68.079 181.767 68.0771 181.097C68.0771 180.655 68.0316 180.288 67.9407 179.994C67.8517 179.701 67.7248 179.48 67.56 179.332C67.3971 179.185 67.2049 179.111 66.9833 179.111C66.6519 179.111 66.3867 179.277 66.1879 179.608C65.989 179.939 65.8886 180.436 65.8867 181.097C65.8867 181.544 65.9312 181.917 66.0202 182.216C66.1112 182.513 66.239 182.737 66.4038 182.886C66.5685 183.034 66.7617 183.108 66.9833 183.108Z" fill="black"/>
<rect x="233" y="128" width="59" height="62" rx="2" fill="#D9D9D9"/>
<path d="M255.018 151.932V149.026L262.305 137.545H264.81V141.568H263.327L258.734 148.838V148.974H269.089V151.932H255.018ZM263.396 155V151.045L263.464 149.759V137.545H266.924V155H263.396Z" fill="black"/>
<rect x="236" y="164" width="53" height="10" rx="1" fill="#A8ABAB"/>
<path d="M254.217 172V166.182H256.512C256.953 166.182 257.329 166.266 257.64 166.435C257.951 166.601 258.187 166.833 258.35 167.131C258.515 167.426 258.597 167.767 258.597 168.153C258.597 168.54 258.514 168.881 258.347 169.176C258.181 169.472 257.939 169.702 257.623 169.866C257.308 170.031 256.928 170.114 256.481 170.114H255.018V169.128H256.282C256.519 169.128 256.714 169.087 256.867 169.006C257.022 168.922 257.138 168.808 257.214 168.662C257.291 168.514 257.33 168.345 257.33 168.153C257.33 167.96 257.291 167.792 257.214 167.648C257.138 167.502 257.022 167.389 256.867 167.31C256.712 167.228 256.515 167.188 256.276 167.188H255.447V172H254.217ZM259.396 172V166.182H263.317V167.196H260.626V168.582H263.115V169.597H260.626V170.986H263.328V172H259.396ZM267.451 167.855C267.428 167.626 267.331 167.448 267.158 167.321C266.986 167.194 266.752 167.131 266.457 167.131C266.256 167.131 266.086 167.159 265.948 167.216C265.81 167.271 265.704 167.348 265.63 167.446C265.558 167.545 265.522 167.656 265.522 167.781C265.518 167.885 265.54 167.976 265.587 168.054C265.637 168.132 265.704 168.199 265.789 168.256C265.874 168.311 265.973 168.359 266.085 168.401C266.196 168.44 266.316 168.474 266.442 168.503L266.965 168.628C267.219 168.685 267.452 168.76 267.664 168.855C267.876 168.95 268.06 169.066 268.215 169.205C268.371 169.343 268.491 169.506 268.576 169.693C268.663 169.881 268.708 170.096 268.71 170.338C268.708 170.694 268.617 171.003 268.437 171.264C268.259 171.524 268.001 171.725 267.664 171.869C267.329 172.011 266.924 172.082 266.451 172.082C265.981 172.082 265.572 172.01 265.224 171.866C264.877 171.723 264.606 171.509 264.411 171.227C264.218 170.943 264.117 170.592 264.107 170.173H265.298C265.311 170.368 265.367 170.531 265.465 170.662C265.566 170.791 265.699 170.888 265.866 170.955C266.034 171.019 266.225 171.051 266.437 171.051C266.645 171.051 266.826 171.021 266.979 170.96C267.135 170.9 267.255 170.815 267.34 170.707C267.425 170.599 267.468 170.475 267.468 170.335C267.468 170.205 267.429 170.095 267.352 170.006C267.276 169.917 267.164 169.841 267.016 169.778C266.871 169.716 266.692 169.659 266.479 169.608L265.846 169.449C265.355 169.33 264.968 169.143 264.684 168.889C264.4 168.635 264.259 168.294 264.261 167.864C264.259 167.511 264.353 167.204 264.542 166.94C264.733 166.677 264.996 166.472 265.329 166.324C265.662 166.176 266.041 166.102 266.465 166.102C266.897 166.102 267.274 166.176 267.596 166.324C267.92 166.472 268.172 166.677 268.352 166.94C268.531 167.204 268.624 167.509 268.63 167.855H267.451ZM274.884 169.091C274.884 169.725 274.763 170.265 274.523 170.71C274.284 171.155 273.958 171.495 273.545 171.73C273.134 171.963 272.672 172.08 272.159 172.08C271.642 172.08 271.178 171.962 270.767 171.727C270.356 171.492 270.031 171.152 269.793 170.707C269.554 170.262 269.435 169.723 269.435 169.091C269.435 168.456 269.554 167.917 269.793 167.472C270.031 167.027 270.356 166.687 270.767 166.455C271.178 166.22 271.642 166.102 272.159 166.102C272.672 166.102 273.134 166.22 273.545 166.455C273.958 166.687 274.284 167.027 274.523 167.472C274.763 167.917 274.884 168.456 274.884 169.091ZM273.636 169.091C273.636 168.68 273.575 168.333 273.452 168.051C273.33 167.769 273.159 167.555 272.938 167.409C272.716 167.263 272.456 167.19 272.159 167.19C271.862 167.19 271.602 167.263 271.381 167.409C271.159 167.555 270.987 167.769 270.864 168.051C270.742 168.333 270.682 168.68 270.682 169.091C270.682 169.502 270.742 169.848 270.864 170.131C270.987 170.413 271.159 170.627 271.381 170.773C271.602 170.919 271.862 170.991 272.159 170.991C272.456 170.991 272.716 170.919 272.938 170.773C273.159 170.627 273.33 170.413 273.452 170.131C273.575 169.848 273.636 169.502 273.636 169.091Z" fill="black"/>
<rect x="236" y="176" width="53" height="10" rx="1" fill="#A8ABAB"/>
<path d="M258.015 184.128C257.526 184.126 257.105 184.006 256.753 183.767C256.403 183.528 256.133 183.183 255.944 182.73C255.756 182.277 255.663 181.733 255.665 181.097C255.665 180.462 255.759 179.921 255.946 179.474C256.136 179.027 256.406 178.687 256.756 178.455C257.108 178.22 257.528 178.102 258.015 178.102C258.501 178.102 258.92 178.22 259.27 178.455C259.623 178.689 259.893 179.03 260.083 179.477C260.272 179.922 260.366 180.462 260.364 181.097C260.364 181.735 260.269 182.28 260.08 182.733C259.892 183.186 259.623 183.531 259.273 183.77C258.923 184.009 258.503 184.128 258.015 184.128ZM258.015 183.108C258.348 183.108 258.614 182.94 258.813 182.605C259.012 182.27 259.11 181.767 259.108 181.097C259.108 180.655 259.063 180.288 258.972 179.994C258.883 179.701 258.756 179.48 258.591 179.332C258.428 179.185 258.236 179.111 258.015 179.111C257.683 179.111 257.418 179.277 257.219 179.608C257.02 179.939 256.92 180.436 256.918 181.097C256.918 181.544 256.962 181.917 257.051 182.216C257.142 182.513 257.27 182.737 257.435 182.886C257.6 183.034 257.793 183.108 258.015 183.108ZM262.333 183.205L262.302 183.517C262.278 183.767 262.23 184.016 262.16 184.264C262.092 184.514 262.02 184.741 261.944 184.943C261.87 185.146 261.811 185.305 261.765 185.42H260.981C261.01 185.309 261.048 185.152 261.098 184.952C261.147 184.753 261.193 184.529 261.237 184.281C261.28 184.033 261.308 183.78 261.319 183.523L261.333 183.205H262.333ZM265.475 184.128C264.987 184.126 264.566 184.006 264.214 183.767C263.864 183.528 263.594 183.183 263.404 182.73C263.217 182.277 263.124 181.733 263.126 181.097C263.126 180.462 263.22 179.921 263.407 179.474C263.597 179.027 263.867 178.687 264.217 178.455C264.569 178.22 264.989 178.102 265.475 178.102C265.962 178.102 266.381 178.22 266.731 178.455C267.083 178.689 267.354 179.03 267.544 179.477C267.733 179.922 267.827 180.462 267.825 181.097C267.825 181.735 267.73 182.28 267.541 182.733C267.353 183.186 267.084 183.531 266.734 183.77C266.384 184.009 265.964 184.128 265.475 184.128ZM265.475 183.108C265.809 183.108 266.075 182.94 266.274 182.605C266.473 182.27 266.571 181.767 266.569 181.097C266.569 180.655 266.524 180.288 266.433 179.994C266.344 179.701 266.217 179.48 266.052 179.332C265.889 179.185 265.697 179.111 265.475 179.111C265.144 179.111 264.879 179.277 264.68 179.608C264.481 179.939 264.381 180.436 264.379 181.097C264.379 181.544 264.423 181.917 264.512 182.216C264.603 182.513 264.731 182.737 264.896 182.886C265.061 183.034 265.254 183.108 265.475 183.108ZM270.983 184.128C270.495 184.126 270.074 184.006 269.722 183.767C269.372 183.528 269.102 183.183 268.912 182.73C268.725 182.277 268.632 181.733 268.634 181.097C268.634 180.462 268.728 179.921 268.915 179.474C269.105 179.027 269.374 178.687 269.725 178.455C270.077 178.22 270.497 178.102 270.983 178.102C271.47 178.102 271.889 178.22 272.239 178.455C272.591 178.689 272.862 179.03 273.051 179.477C273.241 179.922 273.335 180.462 273.333 181.097C273.333 181.735 273.238 182.28 273.049 182.733C272.861 183.186 272.592 183.531 272.242 183.77C271.891 184.009 271.472 184.128 270.983 184.128ZM270.983 183.108C271.317 183.108 271.583 182.94 271.782 182.605C271.98 182.27 272.079 181.767 272.077 181.097C272.077 180.655 272.032 180.288 271.941 179.994C271.852 179.701 271.725 179.48 271.56 179.332C271.397 179.185 271.205 179.111 270.983 179.111C270.652 179.111 270.387 179.277 270.188 179.608C269.989 179.939 269.889 180.436 269.887 181.097C269.887 181.544 269.931 181.917 270.02 182.216C270.111 182.513 270.239 182.737 270.404 182.886C270.569 183.034 270.762 183.108 270.983 183.108Z" fill="black"/>
<rect x="165" y="128" width="59" height="62" rx="2" fill="#D9D9D9"/>
<path d="M193.956 155.239C192.684 155.239 191.55 155.02 190.556 154.582C189.567 154.139 188.786 153.531 188.212 152.759C187.644 151.98 187.351 151.082 187.334 150.065H191.05C191.073 150.491 191.212 150.866 191.468 151.19C191.729 151.509 192.076 151.756 192.507 151.932C192.939 152.108 193.425 152.196 193.965 152.196C194.527 152.196 195.025 152.097 195.456 151.898C195.888 151.699 196.226 151.423 196.471 151.071C196.715 150.719 196.837 150.312 196.837 149.852C196.837 149.386 196.706 148.974 196.445 148.616C196.189 148.253 195.82 147.969 195.337 147.764C194.86 147.56 194.292 147.457 193.632 147.457H192.005V144.747H193.632C194.189 144.747 194.681 144.651 195.107 144.457C195.539 144.264 195.874 143.997 196.113 143.656C196.351 143.31 196.471 142.906 196.471 142.446C196.471 142.009 196.365 141.625 196.155 141.295C195.951 140.96 195.661 140.699 195.286 140.511C194.917 140.324 194.485 140.23 193.99 140.23C193.49 140.23 193.033 140.321 192.618 140.503C192.203 140.679 191.871 140.932 191.621 141.261C191.371 141.591 191.238 141.977 191.221 142.42H187.684C187.701 141.415 187.988 140.528 188.544 139.761C189.101 138.994 189.851 138.395 190.794 137.963C191.743 137.526 192.814 137.307 194.007 137.307C195.212 137.307 196.266 137.526 197.169 137.963C198.073 138.401 198.775 138.991 199.275 139.736C199.78 140.474 200.03 141.304 200.025 142.224C200.03 143.202 199.726 144.017 199.113 144.67C198.505 145.324 197.712 145.739 196.735 145.915V146.051C198.019 146.216 198.996 146.662 199.667 147.389C200.343 148.111 200.678 149.014 200.672 150.099C200.678 151.094 200.391 151.977 199.811 152.75C199.238 153.523 198.445 154.131 197.434 154.574C196.422 155.017 195.263 155.239 193.956 155.239Z" fill="black"/>
<rect x="168" y="164" width="53" height="10" rx="1" fill="#A8ABAB"/>
<path d="M186.217 172V166.182H188.512C188.953 166.182 189.329 166.266 189.64 166.435C189.951 166.601 190.187 166.833 190.35 167.131C190.515 167.426 190.597 167.767 190.597 168.153C190.597 168.54 190.514 168.881 190.347 169.176C190.181 169.472 189.939 169.702 189.623 169.866C189.308 170.031 188.928 170.114 188.481 170.114H187.018V169.128H188.282C188.519 169.128 188.714 169.087 188.867 169.006C189.022 168.922 189.138 168.808 189.214 168.662C189.291 168.514 189.33 168.345 189.33 168.153C189.33 167.96 189.291 167.792 189.214 167.648C189.138 167.502 189.022 167.389 188.867 167.31C188.712 167.228 188.515 167.188 188.276 167.188H187.447V172H186.217ZM191.396 172V166.182H195.317V167.196H192.626V168.582H195.115V169.597H192.626V170.986H195.328V172H191.396ZM199.451 167.855C199.428 167.626 199.331 167.448 199.158 167.321C198.986 167.194 198.752 167.131 198.457 167.131C198.256 167.131 198.086 167.159 197.948 167.216C197.81 167.271 197.704 167.348 197.63 167.446C197.558 167.545 197.522 167.656 197.522 167.781C197.518 167.885 197.54 167.976 197.587 168.054C197.637 168.132 197.704 168.199 197.789 168.256C197.874 168.311 197.973 168.359 198.085 168.401C198.196 168.44 198.316 168.474 198.442 168.503L198.965 168.628C199.219 168.685 199.452 168.76 199.664 168.855C199.876 168.95 200.06 169.066 200.215 169.205C200.371 169.343 200.491 169.506 200.576 169.693C200.663 169.881 200.708 170.096 200.71 170.338C200.708 170.694 200.617 171.003 200.437 171.264C200.259 171.524 200.001 171.725 199.664 171.869C199.329 172.011 198.924 172.082 198.451 172.082C197.981 172.082 197.572 172.01 197.224 171.866C196.877 171.723 196.606 171.509 196.411 171.227C196.218 170.943 196.117 170.592 196.107 170.173H197.298C197.311 170.368 197.367 170.531 197.465 170.662C197.566 170.791 197.699 170.888 197.866 170.955C198.034 171.019 198.225 171.051 198.437 171.051C198.645 171.051 198.826 171.021 198.979 170.96C199.135 170.9 199.255 170.815 199.34 170.707C199.425 170.599 199.468 170.475 199.468 170.335C199.468 170.205 199.429 170.095 199.352 170.006C199.276 169.917 199.164 169.841 199.016 169.778C198.871 169.716 198.692 169.659 198.479 169.608L197.846 169.449C197.355 169.33 196.968 169.143 196.684 168.889C196.4 168.635 196.259 168.294 196.261 167.864C196.259 167.511 196.353 167.204 196.542 166.94C196.733 166.677 196.996 166.472 197.329 166.324C197.662 166.176 198.041 166.102 198.465 166.102C198.897 166.102 199.274 166.176 199.596 166.324C199.92 166.472 200.172 166.677 200.352 166.94C200.531 167.204 200.624 167.509 200.63 167.855H199.451ZM206.884 169.091C206.884 169.725 206.763 170.265 206.523 170.71C206.284 171.155 205.958 171.495 205.545 171.73C205.134 171.963 204.672 172.08 204.159 172.08C203.642 172.08 203.178 171.962 202.767 171.727C202.356 171.492 202.031 171.152 201.793 170.707C201.554 170.262 201.435 169.723 201.435 169.091C201.435 168.456 201.554 167.917 201.793 167.472C202.031 167.027 202.356 166.687 202.767 166.455C203.178 166.22 203.642 166.102 204.159 166.102C204.672 166.102 205.134 166.22 205.545 166.455C205.958 166.687 206.284 167.027 206.523 167.472C206.763 167.917 206.884 168.456 206.884 169.091ZM205.636 169.091C205.636 168.68 205.575 168.333 205.452 168.051C205.33 167.769 205.159 167.555 204.938 167.409C204.716 167.263 204.456 167.19 204.159 167.19C203.862 167.19 203.602 167.263 203.381 167.409C203.159 167.555 202.987 167.769 202.864 168.051C202.742 168.333 202.682 168.68 202.682 169.091C202.682 169.502 202.742 169.848 202.864 170.131C202.987 170.413 203.159 170.627 203.381 170.773C203.602 170.919 203.862 170.991 204.159 170.991C204.456 170.991 204.716 170.919 204.938 170.773C205.159 170.627 205.33 170.413 205.452 170.131C205.575 169.848 205.636 169.502 205.636 169.091Z" fill="black"/>
<rect x="168" y="176" width="53" height="10" rx="1" fill="#A8ABAB"/>
<path d="M190.015 184.128C189.526 184.126 189.105 184.006 188.753 183.767C188.403 183.528 188.133 183.183 187.944 182.73C187.756 182.277 187.663 181.733 187.665 181.097C187.665 180.462 187.759 179.921 187.946 179.474C188.136 179.027 188.406 178.687 188.756 178.455C189.108 178.22 189.528 178.102 190.015 178.102C190.501 178.102 190.92 178.22 191.27 178.455C191.623 178.689 191.893 179.03 192.083 179.477C192.272 179.922 192.366 180.462 192.364 181.097C192.364 181.735 192.269 182.28 192.08 182.733C191.892 183.186 191.623 183.531 191.273 183.77C190.923 184.009 190.503 184.128 190.015 184.128ZM190.015 183.108C190.348 183.108 190.614 182.94 190.813 182.605C191.012 182.27 191.11 181.767 191.108 181.097C191.108 180.655 191.063 180.288 190.972 179.994C190.883 179.701 190.756 179.48 190.591 179.332C190.428 179.185 190.236 179.111 190.015 179.111C189.683 179.111 189.418 179.277 189.219 179.608C189.02 179.939 188.92 180.436 188.918 181.097C188.918 181.544 188.962 181.917 189.051 182.216C189.142 182.513 189.27 182.737 189.435 182.886C189.6 183.034 189.793 183.108 190.015 183.108ZM194.333 183.205L194.302 183.517C194.278 183.767 194.23 184.016 194.16 184.264C194.092 184.514 194.02 184.741 193.944 184.943C193.87 185.146 193.811 185.305 193.765 185.42H192.981C193.01 185.309 193.048 185.152 193.098 184.952C193.147 184.753 193.193 184.529 193.237 184.281C193.28 184.033 193.308 183.78 193.319 183.523L193.333 183.205H194.333ZM197.475 184.128C196.987 184.126 196.566 184.006 196.214 183.767C195.864 183.528 195.594 183.183 195.404 182.73C195.217 182.277 195.124 181.733 195.126 181.097C195.126 180.462 195.22 179.921 195.407 179.474C195.597 179.027 195.867 178.687 196.217 178.455C196.569 178.22 196.989 178.102 197.475 178.102C197.962 178.102 198.381 178.22 198.731 178.455C199.083 178.689 199.354 179.03 199.544 179.477C199.733 179.922 199.827 180.462 199.825 181.097C199.825 181.735 199.73 182.28 199.541 182.733C199.353 183.186 199.084 183.531 198.734 183.77C198.384 184.009 197.964 184.128 197.475 184.128ZM197.475 183.108C197.809 183.108 198.075 182.94 198.274 182.605C198.473 182.27 198.571 181.767 198.569 181.097C198.569 180.655 198.524 180.288 198.433 179.994C198.344 179.701 198.217 179.48 198.052 179.332C197.889 179.185 197.697 179.111 197.475 179.111C197.144 179.111 196.879 179.277 196.68 179.608C196.481 179.939 196.381 180.436 196.379 181.097C196.379 181.544 196.423 181.917 196.512 182.216C196.603 182.513 196.731 182.737 196.896 182.886C197.061 183.034 197.254 183.108 197.475 183.108ZM202.983 184.128C202.495 184.126 202.074 184.006 201.722 183.767C201.372 183.528 201.102 183.183 200.912 182.73C200.725 182.277 200.632 181.733 200.634 181.097C200.634 180.462 200.728 179.921 200.915 179.474C201.105 179.027 201.374 178.687 201.725 178.455C202.077 178.22 202.497 178.102 202.983 178.102C203.47 178.102 203.889 178.22 204.239 178.455C204.591 178.689 204.862 179.03 205.051 179.477C205.241 179.922 205.335 180.462 205.333 181.097C205.333 181.735 205.238 182.28 205.049 182.733C204.861 183.186 204.592 183.531 204.242 183.77C203.891 184.009 203.472 184.128 202.983 184.128ZM202.983 183.108C203.317 183.108 203.583 182.94 203.782 182.605C203.98 182.27 204.079 181.767 204.077 181.097C204.077 180.655 204.032 180.288 203.941 179.994C203.852 179.701 203.725 179.48 203.56 179.332C203.397 179.185 203.205 179.111 202.983 179.111C202.652 179.111 202.387 179.277 202.188 179.608C201.989 179.939 201.889 180.436 201.887 181.097C201.887 181.544 201.931 181.917 202.02 182.216C202.111 182.513 202.239 182.737 202.404 182.886C202.569 183.034 202.762 183.108 202.983 183.108Z" fill="black"/>
<rect x="97" y="128" width="59" height="62" rx="2" fill="#D9D9D9"/>
<path d="M119.856 155V152.341L126.069 146.588C126.598 146.077 127.041 145.616 127.399 145.207C127.762 144.798 128.038 144.398 128.225 144.006C128.413 143.608 128.507 143.179 128.507 142.719C128.507 142.207 128.39 141.767 128.157 141.398C127.924 141.023 127.606 140.736 127.203 140.537C126.799 140.332 126.342 140.23 125.831 140.23C125.297 140.23 124.831 140.338 124.433 140.554C124.035 140.77 123.728 141.08 123.512 141.483C123.297 141.886 123.189 142.366 123.189 142.923H119.686C119.686 141.781 119.944 140.79 120.461 139.949C120.978 139.108 121.703 138.457 122.635 137.997C123.566 137.537 124.64 137.307 125.856 137.307C127.106 137.307 128.194 137.528 129.12 137.972C130.052 138.409 130.777 139.017 131.294 139.795C131.811 140.574 132.069 141.466 132.069 142.472C132.069 143.131 131.939 143.781 131.677 144.423C131.422 145.065 130.964 145.778 130.305 146.562C129.646 147.341 128.717 148.276 127.518 149.366L124.97 151.864V151.983H132.299V155H119.856Z" fill="black"/>
<rect x="100" y="164" width="53" height="10" rx="1" fill="#A8ABAB"/>
<path d="M118.217 172V166.182H120.512C120.953 166.182 121.329 166.266 121.64 166.435C121.951 166.601 122.187 166.833 122.35 167.131C122.515 167.426 122.597 167.767 122.597 168.153C122.597 168.54 122.514 168.881 122.347 169.176C122.181 169.472 121.939 169.702 121.623 169.866C121.308 170.031 120.928 170.114 120.481 170.114H119.018V169.128H120.282C120.519 169.128 120.714 169.087 120.867 169.006C121.022 168.922 121.138 168.808 121.214 168.662C121.291 168.514 121.33 168.345 121.33 168.153C121.33 167.96 121.291 167.792 121.214 167.648C121.138 167.502 121.022 167.389 120.867 167.31C120.712 167.228 120.515 167.188 120.276 167.188H119.447V172H118.217ZM123.396 172V166.182H127.317V167.196H124.626V168.582H127.115V169.597H124.626V170.986H127.328V172H123.396ZM131.451 167.855C131.428 167.626 131.331 167.448 131.158 167.321C130.986 167.194 130.752 167.131 130.457 167.131C130.256 167.131 130.086 167.159 129.948 167.216C129.81 167.271 129.704 167.348 129.63 167.446C129.558 167.545 129.522 167.656 129.522 167.781C129.518 167.885 129.54 167.976 129.587 168.054C129.637 168.132 129.704 168.199 129.789 168.256C129.874 168.311 129.973 168.359 130.085 168.401C130.196 168.44 130.316 168.474 130.442 168.503L130.965 168.628C131.219 168.685 131.452 168.76 131.664 168.855C131.876 168.95 132.06 169.066 132.215 169.205C132.371 169.343 132.491 169.506 132.576 169.693C132.663 169.881 132.708 170.096 132.71 170.338C132.708 170.694 132.617 171.003 132.437 171.264C132.259 171.524 132.001 171.725 131.664 171.869C131.329 172.011 130.924 172.082 130.451 172.082C129.981 172.082 129.572 172.01 129.224 171.866C128.877 171.723 128.606 171.509 128.411 171.227C128.218 170.943 128.117 170.592 128.107 170.173H129.298C129.311 170.368 129.367 170.531 129.465 170.662C129.566 170.791 129.699 170.888 129.866 170.955C130.034 171.019 130.225 171.051 130.437 171.051C130.645 171.051 130.826 171.021 130.979 170.96C131.135 170.9 131.255 170.815 131.34 170.707C131.425 170.599 131.468 170.475 131.468 170.335C131.468 170.205 131.429 170.095 131.352 170.006C131.276 169.917 131.164 169.841 131.016 169.778C130.871 169.716 130.692 169.659 130.479 169.608L129.846 169.449C129.355 169.33 128.968 169.143 128.684 168.889C128.4 168.635 128.259 168.294 128.261 167.864C128.259 167.511 128.353 167.204 128.542 166.94C128.733 166.677 128.996 166.472 129.329 166.324C129.662 166.176 130.041 166.102 130.465 166.102C130.897 166.102 131.274 166.176 131.596 166.324C131.92 166.472 132.172 166.677 132.352 166.94C132.531 167.204 132.624 167.509 132.63 167.855H131.451ZM138.884 169.091C138.884 169.725 138.763 170.265 138.523 170.71C138.284 171.155 137.958 171.495 137.545 171.73C137.134 171.963 136.672 172.08 136.159 172.08C135.642 172.08 135.178 171.962 134.767 171.727C134.356 171.492 134.031 171.152 133.793 170.707C133.554 170.262 133.435 169.723 133.435 169.091C133.435 168.456 133.554 167.917 133.793 167.472C134.031 167.027 134.356 166.687 134.767 166.455C135.178 166.22 135.642 166.102 136.159 166.102C136.672 166.102 137.134 166.22 137.545 166.455C137.958 166.687 138.284 167.027 138.523 167.472C138.763 167.917 138.884 168.456 138.884 169.091ZM137.636 169.091C137.636 168.68 137.575 168.333 137.452 168.051C137.33 167.769 137.159 167.555 136.938 167.409C136.716 167.263 136.456 167.19 136.159 167.19C135.862 167.19 135.602 167.263 135.381 167.409C135.159 167.555 134.987 167.769 134.864 168.051C134.742 168.333 134.682 168.68 134.682 169.091C134.682 169.502 134.742 169.848 134.864 170.131C134.987 170.413 135.159 170.627 135.381 170.773C135.602 170.919 135.862 170.991 136.159 170.991C136.456 170.991 136.716 170.919 136.938 170.773C137.159 170.627 137.33 170.413 137.452 170.131C137.575 169.848 137.636 169.502 137.636 169.091Z" fill="black"/>
<rect x="100" y="176" width="53" height="10" rx="1" fill="#A8ABAB"/>
<path d="M122.015 184.128C121.526 184.126 121.105 184.006 120.753 183.767C120.403 183.528 120.133 183.183 119.944 182.73C119.756 182.277 119.663 181.733 119.665 181.097C119.665 180.462 119.759 179.921 119.946 179.474C120.136 179.027 120.406 178.687 120.756 178.455C121.108 178.22 121.528 178.102 122.015 178.102C122.501 178.102 122.92 178.22 123.27 178.455C123.623 178.689 123.893 179.03 124.083 179.477C124.272 179.922 124.366 180.462 124.364 181.097C124.364 181.735 124.269 182.28 124.08 182.733C123.892 183.186 123.623 183.531 123.273 183.77C122.923 184.009 122.503 184.128 122.015 184.128ZM122.015 183.108C122.348 183.108 122.614 182.94 122.813 182.605C123.012 182.27 123.11 181.767 123.108 181.097C123.108 180.655 123.063 180.288 122.972 179.994C122.883 179.701 122.756 179.48 122.591 179.332C122.428 179.185 122.236 179.111 122.015 179.111C121.683 179.111 121.418 179.277 121.219 179.608C121.02 179.939 120.92 180.436 120.918 181.097C120.918 181.544 120.962 181.917 121.051 182.216C121.142 182.513 121.27 182.737 121.435 182.886C121.6 183.034 121.793 183.108 122.015 183.108ZM126.333 183.205L126.302 183.517C126.278 183.767 126.23 184.016 126.16 184.264C126.092 184.514 126.02 184.741 125.944 184.943C125.87 185.146 125.811 185.305 125.765 185.42H124.981C125.01 185.309 125.048 185.152 125.098 184.952C125.147 184.753 125.193 184.529 125.237 184.281C125.28 184.033 125.308 183.78 125.319 183.523L125.333 183.205H126.333ZM129.475 184.128C128.987 184.126 128.566 184.006 128.214 183.767C127.864 183.528 127.594 183.183 127.404 182.73C127.217 182.277 127.124 181.733 127.126 181.097C127.126 180.462 127.22 179.921 127.407 179.474C127.597 179.027 127.867 178.687 128.217 178.455C128.569 178.22 128.989 178.102 129.475 178.102C129.962 178.102 130.381 178.22 130.731 178.455C131.083 178.689 131.354 179.03 131.544 179.477C131.733 179.922 131.827 180.462 131.825 181.097C131.825 181.735 131.73 182.28 131.541 182.733C131.353 183.186 131.084 183.531 130.734 183.77C130.384 184.009 129.964 184.128 129.475 184.128ZM129.475 183.108C129.809 183.108 130.075 182.94 130.274 182.605C130.473 182.27 130.571 181.767 130.569 181.097C130.569 180.655 130.524 180.288 130.433 179.994C130.344 179.701 130.217 179.48 130.052 179.332C129.889 179.185 129.697 179.111 129.475 179.111C129.144 179.111 128.879 179.277 128.68 179.608C128.481 179.939 128.381 180.436 128.379 181.097C128.379 181.544 128.423 181.917 128.512 182.216C128.603 182.513 128.731 182.737 128.896 182.886C129.061 183.034 129.254 183.108 129.475 183.108ZM134.983 184.128C134.495 184.126 134.074 184.006 133.722 183.767C133.372 183.528 133.102 183.183 132.912 182.73C132.725 182.277 132.632 181.733 132.634 181.097C132.634 180.462 132.728 179.921 132.915 179.474C133.105 179.027 133.374 178.687 133.725 178.455C134.077 178.22 134.497 178.102 134.983 178.102C135.47 178.102 135.889 178.22 136.239 178.455C136.591 178.689 136.862 179.03 137.051 179.477C137.241 179.922 137.335 180.462 137.333 181.097C137.333 181.735 137.238 182.28 137.049 182.733C136.861 183.186 136.592 183.531 136.242 183.77C135.891 184.009 135.472 184.128 134.983 184.128ZM134.983 183.108C135.317 183.108 135.583 182.94 135.782 182.605C135.98 182.27 136.079 181.767 136.077 181.097C136.077 180.655 136.032 180.288 135.941 179.994C135.852 179.701 135.725 179.48 135.56 179.332C135.397 179.185 135.205 179.111 134.983 179.111C134.652 179.111 134.387 179.277 134.188 179.608C133.989 179.939 133.889 180.436 133.887 181.097C133.887 181.544 133.931 181.917 134.02 182.216C134.111 182.513 134.239 182.737 134.404 182.886C134.569 183.034 134.762 183.108 134.983 183.108Z" fill="black"/>
<rect x="29" y="270" width="59" height="62" rx="2" fill="#D9D9D9"/>
<path d="M53.4031 279.545V297H49.7127V283.048H49.6104L45.6133 285.554V282.281L49.9343 279.545H53.4031ZM63.9265 297.239C62.7219 297.239 61.6481 297.017 60.7049 296.574C59.7674 296.131 59.0231 295.52 58.4719 294.741C57.9208 293.963 57.6339 293.071 57.6112 292.065H61.1907C61.2305 292.741 61.5146 293.29 62.043 293.71C62.5714 294.131 63.1992 294.341 63.9265 294.341C64.506 294.341 65.0174 294.213 65.4606 293.957C65.9094 293.696 66.2589 293.335 66.5089 292.875C66.7646 292.409 66.8924 291.875 66.8924 291.273C66.8924 290.659 66.7617 290.119 66.5004 289.653C66.2447 289.187 65.8896 288.824 65.435 288.562C64.9805 288.301 64.4606 288.168 63.8754 288.162C63.364 288.162 62.8668 288.267 62.3839 288.477C61.9066 288.687 61.5344 288.974 61.2674 289.338L57.9862 288.75L58.8129 279.545H69.4833V282.562H61.8555L61.4038 286.935H61.506C61.8129 286.503 62.2759 286.145 62.8952 285.861C63.5146 285.577 64.2077 285.435 64.9748 285.435C66.0259 285.435 66.9634 285.682 67.7873 286.176C68.6112 286.67 69.2617 287.349 69.739 288.213C70.2163 289.071 70.4521 290.06 70.4464 291.179C70.4521 292.355 70.1793 293.401 69.6282 294.315C69.0827 295.224 68.3185 295.94 67.3356 296.463C66.3583 296.98 65.2219 297.239 63.9265 297.239Z" fill="#FF0000"/>
<rect x="233" y="270" width="59" height="62" rx="2" fill="#D9D9D9"/>
<path d="M256.704 279.545V297H253.013V283.048H252.911L248.914 285.554V282.281L253.235 279.545H256.704ZM267.364 297.239C266.051 297.239 264.884 297.026 263.861 296.599C262.844 296.168 262.045 295.58 261.466 294.835C260.886 294.091 260.597 293.247 260.597 292.304C260.597 291.577 260.761 290.909 261.091 290.301C261.426 289.688 261.881 289.179 262.455 288.776C263.028 288.366 263.67 288.105 264.381 287.991V287.872C263.449 287.685 262.693 287.233 262.114 286.517C261.534 285.795 261.244 284.957 261.244 284.003C261.244 283.099 261.509 282.295 262.037 281.591C262.565 280.881 263.29 280.324 264.21 279.92C265.136 279.511 266.188 279.307 267.364 279.307C268.54 279.307 269.588 279.511 270.509 279.92C271.435 280.33 272.162 280.889 272.69 281.599C273.219 282.304 273.486 283.105 273.491 284.003C273.486 284.963 273.19 285.801 272.605 286.517C272.02 287.233 271.27 287.685 270.355 287.872V287.991C271.054 288.105 271.688 288.366 272.256 288.776C272.83 289.179 273.284 289.688 273.619 290.301C273.96 290.909 274.134 291.577 274.139 292.304C274.134 293.247 273.841 294.091 273.261 294.835C272.682 295.58 271.881 296.168 270.858 296.599C269.841 297.026 268.676 297.239 267.364 297.239ZM267.364 294.528C267.949 294.528 268.46 294.423 268.898 294.213C269.335 293.997 269.676 293.702 269.92 293.327C270.17 292.946 270.295 292.509 270.295 292.014C270.295 291.509 270.168 291.062 269.912 290.676C269.656 290.284 269.31 289.977 268.872 289.756C268.435 289.528 267.932 289.415 267.364 289.415C266.801 289.415 266.298 289.528 265.855 289.756C265.412 289.977 265.063 290.284 264.807 290.676C264.557 291.062 264.432 291.509 264.432 292.014C264.432 292.509 264.554 292.946 264.798 293.327C265.043 293.702 265.386 293.997 265.83 294.213C266.273 294.423 266.784 294.528 267.364 294.528ZM267.364 286.73C267.852 286.73 268.287 286.631 268.668 286.432C269.048 286.233 269.347 285.957 269.562 285.605C269.778 285.253 269.886 284.847 269.886 284.386C269.886 283.932 269.778 283.534 269.562 283.193C269.347 282.847 269.051 282.577 268.676 282.384C268.301 282.185 267.864 282.085 267.364 282.085C266.869 282.085 266.432 282.185 266.051 282.384C265.67 282.577 265.372 282.847 265.156 283.193C264.946 283.534 264.841 283.932 264.841 284.386C264.841 284.847 264.949 285.253 265.165 285.605C265.381 285.957 265.679 286.233 266.06 286.432C266.44 286.631 266.875 286.73 267.364 286.73Z" fill="black"/>
<rect x="165" y="270" width="59" height="62" rx="2" fill="#D9D9D9"/>
<path d="M190.001 278.545V296H186.31V282.048H186.208L182.211 284.554V281.281L186.532 278.545H190.001ZM194.839 296L202.075 281.682V281.562H193.646V278.545H205.893V281.605L198.649 296H194.839Z" fill="black"/>
<rect x="97" y="270" width="59" height="62" rx="2" fill="#D9D9D9"/>
<path d="M121.716 279.545V297H118.025V283.048H117.923L113.926 285.554V282.281L118.247 279.545H121.716ZM132.563 297.239C131.665 297.233 130.799 297.082 129.963 296.787C129.134 296.491 128.39 296.011 127.73 295.347C127.071 294.682 126.549 293.801 126.162 292.705C125.782 291.608 125.591 290.261 125.591 288.665C125.597 287.199 125.765 285.889 126.094 284.736C126.429 283.577 126.907 282.594 127.526 281.787C128.151 280.98 128.898 280.366 129.767 279.946C130.637 279.52 131.611 279.307 132.691 279.307C133.855 279.307 134.884 279.534 135.776 279.989C136.668 280.437 137.384 281.048 137.924 281.821C138.469 282.594 138.799 283.46 138.912 284.42H135.273C135.131 283.812 134.833 283.335 134.378 282.989C133.924 282.642 133.361 282.469 132.691 282.469C131.554 282.469 130.691 282.963 130.1 283.952C129.515 284.94 129.216 286.284 129.205 287.983H129.324C129.586 287.466 129.938 287.026 130.381 286.662C130.83 286.293 131.338 286.011 131.907 285.818C132.48 285.619 133.086 285.52 133.722 285.52C134.756 285.52 135.676 285.764 136.483 286.253C137.29 286.736 137.926 287.401 138.392 288.247C138.858 289.094 139.091 290.062 139.091 291.153C139.091 292.335 138.816 293.386 138.265 294.307C137.719 295.227 136.955 295.949 135.972 296.472C134.995 296.989 133.858 297.244 132.563 297.239ZM132.546 294.341C133.114 294.341 133.623 294.205 134.071 293.932C134.52 293.659 134.873 293.29 135.128 292.824C135.384 292.358 135.512 291.835 135.512 291.256C135.512 290.676 135.384 290.156 135.128 289.696C134.878 289.236 134.532 288.869 134.088 288.597C133.645 288.324 133.14 288.188 132.571 288.188C132.145 288.188 131.75 288.267 131.387 288.426C131.029 288.585 130.713 288.807 130.441 289.091C130.174 289.375 129.963 289.705 129.81 290.08C129.657 290.449 129.58 290.844 129.58 291.264C129.58 291.827 129.708 292.341 129.963 292.807C130.225 293.273 130.577 293.645 131.02 293.923C131.469 294.202 131.978 294.341 132.546 294.341Z" fill="black"/>
<rect x="29" y="199" width="59" height="62" rx="2" fill="#D9D9D9"/>
<path d="M57.9925 226.239C56.68 226.239 55.5124 226.026 54.4897 225.599C53.4727 225.168 52.6744 224.58 52.0948 223.835C51.5153 223.091 51.2255 222.247 51.2255 221.304C51.2255 220.577 51.3903 219.909 51.7198 219.301C52.055 218.688 52.5096 218.179 53.0835 217.776C53.6573 217.366 54.2994 217.105 55.0096 216.991V216.872C54.0778 216.685 53.3221 216.233 52.7425 215.517C52.163 214.795 51.8732 213.957 51.8732 213.003C51.8732 212.099 52.1374 211.295 52.6658 210.591C53.1942 209.881 53.9187 209.324 54.8391 208.92C55.7653 208.511 56.8164 208.307 57.9925 208.307C59.1687 208.307 60.217 208.511 61.1374 208.92C62.0636 209.33 62.7908 209.889 63.3192 210.599C63.8477 211.304 64.1147 212.105 64.1204 213.003C64.1147 213.963 63.8192 214.801 63.234 215.517C62.6488 216.233 61.8988 216.685 60.984 216.872V216.991C61.6829 217.105 62.3164 217.366 62.8846 217.776C63.4585 218.179 63.913 218.688 64.2482 219.301C64.5891 219.909 64.7624 220.577 64.7681 221.304C64.7624 222.247 64.4698 223.091 63.8903 223.835C63.3107 224.58 62.5096 225.168 61.4869 225.599C60.4698 226.026 59.305 226.239 57.9925 226.239ZM57.9925 223.528C58.5778 223.528 59.0891 223.423 59.5266 223.213C59.9641 222.997 60.305 222.702 60.5494 222.327C60.7994 221.946 60.9244 221.509 60.9244 221.014C60.9244 220.509 60.7965 220.062 60.5408 219.676C60.2852 219.284 59.9386 218.977 59.5011 218.756C59.0636 218.528 58.5607 218.415 57.9925 218.415C57.43 218.415 56.9272 218.528 56.484 218.756C56.0408 218.977 55.6914 219.284 55.4357 219.676C55.1857 220.062 55.0607 220.509 55.0607 221.014C55.0607 221.509 55.1829 221.946 55.4272 222.327C55.6715 222.702 56.0153 222.997 56.4585 223.213C56.9016 223.423 57.413 223.528 57.9925 223.528ZM57.9925 215.73C58.4812 215.73 58.9158 215.631 59.2965 215.432C59.6772 215.233 59.9755 214.957 60.1914 214.605C60.4073 214.253 60.5153 213.847 60.5153 213.386C60.5153 212.932 60.4073 212.534 60.1914 212.193C59.9755 211.847 59.68 211.577 59.305 211.384C58.93 211.185 58.4925 211.085 57.9925 211.085C57.4982 211.085 57.0607 211.185 56.68 211.384C56.2994 211.577 56.0011 211.847 55.7852 212.193C55.5749 212.534 55.4698 212.932 55.4698 213.386C55.4698 213.847 55.5778 214.253 55.7937 214.605C56.0096 214.957 56.3079 215.233 56.6886 215.432C57.0692 215.631 57.5039 215.73 57.9925 215.73Z" fill="#FF0000"/>
<rect x="32" y="235" width="53" height="10" rx="1" fill="#A8ABAB"/>
<path d="M50.2166 243V237.182H52.5121C52.9534 237.182 53.3293 237.266 53.6399 237.435C53.9505 237.601 54.1873 237.833 54.3501 238.131C54.5149 238.426 54.5973 238.767 54.5973 239.153C54.5973 239.54 54.514 239.881 54.3473 240.176C54.1806 240.472 53.9392 240.702 53.6229 240.866C53.3085 241.031 52.9278 241.114 52.4808 241.114H51.0178V240.128H52.282C52.5187 240.128 52.7138 240.087 52.8672 240.006C53.0225 239.922 53.138 239.808 53.2138 239.662C53.2914 239.514 53.3303 239.345 53.3303 239.153C53.3303 238.96 53.2914 238.792 53.2138 238.648C53.138 238.502 53.0225 238.389 52.8672 238.31C52.7119 238.228 52.5149 238.188 52.2763 238.188H51.4467V243H50.2166ZM55.3963 243V237.182H59.3168V238.196H56.6264V239.582H59.1151V240.597H56.6264V241.986H59.3281V243H55.3963ZM63.451 238.855C63.4283 238.626 63.3307 238.448 63.1584 238.321C62.986 238.194 62.7521 238.131 62.4567 238.131C62.2559 238.131 62.0864 238.159 61.9482 238.216C61.8099 238.271 61.7038 238.348 61.63 238.446C61.558 238.545 61.522 238.656 61.522 238.781C61.5182 238.885 61.54 238.976 61.5874 239.054C61.6366 239.132 61.7038 239.199 61.7891 239.256C61.8743 239.311 61.9728 239.359 62.0845 239.401C62.1963 239.44 62.3156 239.474 62.4425 239.503L62.9652 239.628C63.219 239.685 63.4519 239.76 63.6641 239.855C63.8762 239.95 64.0599 240.066 64.2152 240.205C64.3705 240.343 64.4908 240.506 64.576 240.693C64.6631 240.881 64.7076 241.096 64.7095 241.338C64.7076 241.694 64.6167 242.003 64.4368 242.264C64.2588 242.524 64.0012 242.725 63.6641 242.869C63.3288 243.011 62.9245 243.082 62.451 243.082C61.9813 243.082 61.5722 243.01 61.2237 242.866C60.8771 242.723 60.6063 242.509 60.4112 242.227C60.218 241.943 60.1167 241.592 60.1072 241.173H61.2976C61.3108 241.368 61.3667 241.531 61.4652 241.662C61.5656 241.791 61.6991 241.888 61.8658 241.955C62.0343 242.019 62.2247 242.051 62.4368 242.051C62.6451 242.051 62.826 242.021 62.9794 241.96C63.1347 241.9 63.255 241.815 63.3402 241.707C63.4254 241.599 63.468 241.475 63.468 241.335C63.468 241.205 63.4292 241.095 63.3516 241.006C63.2758 240.917 63.1641 240.841 63.0163 240.778C62.8705 240.716 62.6915 240.659 62.4794 240.608L61.8459 240.449C61.3554 240.33 60.968 240.143 60.6839 239.889C60.3999 239.635 60.2588 239.294 60.2607 238.864C60.2588 238.511 60.3525 238.204 60.5419 237.94C60.7332 237.677 60.9955 237.472 61.3288 237.324C61.6622 237.176 62.041 237.102 62.4652 237.102C62.897 237.102 63.2739 237.176 63.5959 237.324C63.9197 237.472 64.1716 237.677 64.3516 237.94C64.5315 238.204 64.6243 238.509 64.63 238.855H63.451ZM70.8835 240.091C70.8835 240.725 70.7633 241.265 70.5227 241.71C70.2841 242.155 69.9583 242.495 69.5455 242.73C69.1345 242.963 68.6723 243.08 68.1591 243.08C67.642 243.08 67.178 242.962 66.767 242.727C66.3561 242.492 66.0313 242.152 65.7926 241.707C65.554 241.262 65.4347 240.723 65.4347 240.091C65.4347 239.456 65.554 238.917 65.7926 238.472C66.0313 238.027 66.3561 237.687 66.767 237.455C67.178 237.22 67.642 237.102 68.1591 237.102C68.6723 237.102 69.1345 237.22 69.5455 237.455C69.9583 237.687 70.2841 238.027 70.5227 238.472C70.7633 238.917 70.8835 239.456 70.8835 240.091ZM69.6364 240.091C69.6364 239.68 69.5748 239.333 69.4517 239.051C69.3305 238.769 69.1591 238.555 68.9375 238.409C68.7159 238.263 68.4564 238.19 68.1591 238.19C67.8617 238.19 67.6023 238.263 67.3807 238.409C67.1591 238.555 66.9867 238.769 66.8636 239.051C66.7424 239.333 66.6818 239.68 66.6818 240.091C66.6818 240.502 66.7424 240.848 66.8636 241.131C66.9867 241.413 67.1591 241.627 67.3807 241.773C67.6023 241.919 67.8617 241.991 68.1591 241.991C68.4564 241.991 68.7159 241.919 68.9375 241.773C69.1591 241.627 69.3305 241.413 69.4517 241.131C69.5748 240.848 69.6364 240.502 69.6364 240.091Z" fill="black"/>
<rect x="32" y="247" width="53" height="10" rx="1" fill="#A8ABAB"/>
<path d="M54.0146 255.128C53.5259 255.126 53.1055 255.006 52.7532 254.767C52.4028 254.528 52.1329 254.183 51.9435 253.73C51.756 253.277 51.6632 252.733 51.6651 252.097C51.6651 251.462 51.7589 250.921 51.9464 250.474C52.1358 250.027 52.4057 249.687 52.756 249.455C53.1083 249.22 53.5278 249.102 54.0146 249.102C54.5013 249.102 54.9199 249.22 55.2702 249.455C55.6225 249.689 55.8933 250.03 56.0827 250.477C56.2721 250.922 56.3659 251.462 56.364 252.097C56.364 252.735 56.2693 253.28 56.0799 253.733C55.8924 254.186 55.6235 254.531 55.2731 254.77C54.9227 255.009 54.5032 255.128 54.0146 255.128ZM54.0146 254.108C54.3479 254.108 54.614 253.94 54.8129 253.605C55.0117 253.27 55.1102 252.767 55.1083 252.097C55.1083 251.655 55.0629 251.288 54.9719 250.994C54.8829 250.701 54.756 250.48 54.5913 250.332C54.4284 250.185 54.2362 250.111 54.0146 250.111C53.6831 250.111 53.418 250.277 53.2191 250.608C53.0202 250.939 52.9199 251.436 52.918 252.097C52.918 252.544 52.9625 252.917 53.0515 253.216C53.1424 253.513 53.2702 253.737 53.435 253.886C53.5998 254.034 53.793 254.108 54.0146 254.108ZM58.3335 254.205L58.3022 254.517C58.2776 254.767 58.2302 255.016 58.1602 255.264C58.092 255.514 58.02 255.741 57.9442 255.943C57.8704 256.146 57.8107 256.305 57.7653 256.42H56.9812C57.0096 256.309 57.0484 256.152 57.0977 255.952C57.1469 255.753 57.1933 255.529 57.2369 255.281C57.2804 255.033 57.3079 254.78 57.3192 254.523L57.3335 254.205H58.3335ZM61.4755 255.128C60.9869 255.126 60.5664 255.006 60.2141 254.767C59.8638 254.528 59.5939 254.183 59.4045 253.73C59.217 253.277 59.1242 252.733 59.1261 252.097C59.1261 251.462 59.2198 250.921 59.4073 250.474C59.5967 250.027 59.8666 249.687 60.217 249.455C60.5692 249.22 60.9888 249.102 61.4755 249.102C61.9622 249.102 62.3808 249.22 62.7312 249.455C63.0835 249.689 63.3543 250.03 63.5437 250.477C63.7331 250.922 63.8268 251.462 63.8249 252.097C63.8249 252.735 63.7302 253.28 63.5408 253.733C63.3533 254.186 63.0844 254.531 62.734 254.77C62.3836 255.009 61.9641 255.128 61.4755 255.128ZM61.4755 254.108C61.8088 254.108 62.0749 253.94 62.2738 253.605C62.4727 253.27 62.5711 252.767 62.5692 252.097C62.5692 251.655 62.5238 251.288 62.4329 250.994C62.3439 250.701 62.217 250.48 62.0522 250.332C61.8893 250.185 61.6971 250.111 61.4755 250.111C61.1441 250.111 60.8789 250.277 60.68 250.608C60.4812 250.939 60.3808 251.436 60.3789 252.097C60.3789 252.544 60.4234 252.917 60.5124 253.216C60.6033 253.513 60.7312 253.737 60.896 253.886C61.0607 254.034 61.2539 254.108 61.4755 254.108ZM66.9833 255.128C66.4947 255.126 66.0742 255.006 65.7219 254.767C65.3716 254.528 65.1017 254.183 64.9123 253.73C64.7248 253.277 64.632 252.733 64.6339 252.097C64.6339 251.462 64.7276 250.921 64.9151 250.474C65.1045 250.027 65.3744 249.687 65.7248 249.455C66.0771 249.22 66.4966 249.102 66.9833 249.102C67.4701 249.102 67.8886 249.22 68.239 249.455C68.5913 249.689 68.8621 250.03 69.0515 250.477C69.2409 250.922 69.3346 251.462 69.3327 252.097C69.3327 252.735 69.238 253.28 69.0487 253.733C68.8612 254.186 68.5922 254.531 68.2418 254.77C67.8915 255.009 67.4719 255.128 66.9833 255.128ZM66.9833 254.108C67.3166 254.108 67.5827 253.94 67.7816 253.605C67.9805 253.27 68.079 252.767 68.0771 252.097C68.0771 251.655 68.0316 251.288 67.9407 250.994C67.8517 250.701 67.7248 250.48 67.56 250.332C67.3971 250.185 67.2049 250.111 66.9833 250.111C66.6519 250.111 66.3867 250.277 66.1879 250.608C65.989 250.939 65.8886 251.436 65.8867 252.097C65.8867 252.544 65.9312 252.917 66.0202 253.216C66.1112 253.513 66.239 253.737 66.4038 253.886C66.5685 254.034 66.7617 254.108 66.9833 254.108Z" fill="black"/>
<rect x="233" y="199" width="59" height="62" rx="2" fill="#D9D9D9"/>
<path d="M260.266 208.545V226H256.576V212.048H256.474L252.477 214.554V211.281L256.798 208.545H260.266ZM272.009 208.545V226H268.318V212.048H268.216L264.219 214.554V211.281L268.54 208.545H272.009Z" fill="black"/>
<rect x="236" y="235" width="53" height="10" rx="1" fill="#A8ABAB"/>
<path d="M254.217 243V237.182H256.512C256.953 237.182 257.329 237.266 257.64 237.435C257.951 237.601 258.187 237.833 258.35 238.131C258.515 238.426 258.597 238.767 258.597 239.153C258.597 239.54 258.514 239.881 258.347 240.176C258.181 240.472 257.939 240.702 257.623 240.866C257.308 241.031 256.928 241.114 256.481 241.114H255.018V240.128H256.282C256.519 240.128 256.714 240.087 256.867 240.006C257.022 239.922 257.138 239.808 257.214 239.662C257.291 239.514 257.33 239.345 257.33 239.153C257.33 238.96 257.291 238.792 257.214 238.648C257.138 238.502 257.022 238.389 256.867 238.31C256.712 238.228 256.515 238.188 256.276 238.188H255.447V243H254.217ZM259.396 243V237.182H263.317V238.196H260.626V239.582H263.115V240.597H260.626V241.986H263.328V243H259.396ZM267.451 238.855C267.428 238.626 267.331 238.448 267.158 238.321C266.986 238.194 266.752 238.131 266.457 238.131C266.256 238.131 266.086 238.159 265.948 238.216C265.81 238.271 265.704 238.348 265.63 238.446C265.558 238.545 265.522 238.656 265.522 238.781C265.518 238.885 265.54 238.976 265.587 239.054C265.637 239.132 265.704 239.199 265.789 239.256C265.874 239.311 265.973 239.359 266.085 239.401C266.196 239.44 266.316 239.474 266.442 239.503L266.965 239.628C267.219 239.685 267.452 239.76 267.664 239.855C267.876 239.95 268.06 240.066 268.215 240.205C268.371 240.343 268.491 240.506 268.576 240.693C268.663 240.881 268.708 241.096 268.71 241.338C268.708 241.694 268.617 242.003 268.437 242.264C268.259 242.524 268.001 242.725 267.664 242.869C267.329 243.011 266.924 243.082 266.451 243.082C265.981 243.082 265.572 243.01 265.224 242.866C264.877 242.723 264.606 242.509 264.411 242.227C264.218 241.943 264.117 241.592 264.107 241.173H265.298C265.311 241.368 265.367 241.531 265.465 241.662C265.566 241.791 265.699 241.888 265.866 241.955C266.034 242.019 266.225 242.051 266.437 242.051C266.645 242.051 266.826 242.021 266.979 241.96C267.135 241.9 267.255 241.815 267.34 241.707C267.425 241.599 267.468 241.475 267.468 241.335C267.468 241.205 267.429 241.095 267.352 241.006C267.276 240.917 267.164 240.841 267.016 240.778C266.871 240.716 266.692 240.659 266.479 240.608L265.846 240.449C265.355 240.33 264.968 240.143 264.684 239.889C264.4 239.635 264.259 239.294 264.261 238.864C264.259 238.511 264.353 238.204 264.542 237.94C264.733 237.677 264.996 237.472 265.329 237.324C265.662 237.176 266.041 237.102 266.465 237.102C266.897 237.102 267.274 237.176 267.596 237.324C267.92 237.472 268.172 237.677 268.352 237.94C268.531 238.204 268.624 238.509 268.63 238.855H267.451ZM274.884 240.091C274.884 240.725 274.763 241.265 274.523 241.71C274.284 242.155 273.958 242.495 273.545 242.73C273.134 242.963 272.672 243.08 272.159 243.08C271.642 243.08 271.178 242.962 270.767 242.727C270.356 242.492 270.031 242.152 269.793 241.707C269.554 241.262 269.435 240.723 269.435 240.091C269.435 239.456 269.554 238.917 269.793 238.472C270.031 238.027 270.356 237.687 270.767 237.455C271.178 237.22 271.642 237.102 272.159 237.102C272.672 237.102 273.134 237.22 273.545 237.455C273.958 237.687 274.284 238.027 274.523 238.472C274.763 238.917 274.884 239.456 274.884 240.091ZM273.636 240.091C273.636 239.68 273.575 239.333 273.452 239.051C273.33 238.769 273.159 238.555 272.938 238.409C272.716 238.263 272.456 238.19 272.159 238.19C271.862 238.19 271.602 238.263 271.381 238.409C271.159 238.555 270.987 238.769 270.864 239.051C270.742 239.333 270.682 239.68 270.682 240.091C270.682 240.502 270.742 240.848 270.864 241.131C270.987 241.413 271.159 241.627 271.381 241.773C271.602 241.919 271.862 241.991 272.159 241.991C272.456 241.991 272.716 241.919 272.938 241.773C273.159 241.627 273.33 241.413 273.452 241.131C273.575 240.848 273.636 240.502 273.636 240.091Z" fill="black"/>
<rect x="236" y="247" width="53" height="10" rx="1" fill="#A8ABAB"/>
<path d="M258.015 255.128C257.526 255.126 257.105 255.006 256.753 254.767C256.403 254.528 256.133 254.183 255.944 253.73C255.756 253.277 255.663 252.733 255.665 252.097C255.665 251.462 255.759 250.921 255.946 250.474C256.136 250.027 256.406 249.687 256.756 249.455C257.108 249.22 257.528 249.102 258.015 249.102C258.501 249.102 258.92 249.22 259.27 249.455C259.623 249.689 259.893 250.03 260.083 250.477C260.272 250.922 260.366 251.462 260.364 252.097C260.364 252.735 260.269 253.28 260.08 253.733C259.892 254.186 259.623 254.531 259.273 254.77C258.923 255.009 258.503 255.128 258.015 255.128ZM258.015 254.108C258.348 254.108 258.614 253.94 258.813 253.605C259.012 253.27 259.11 252.767 259.108 252.097C259.108 251.655 259.063 251.288 258.972 250.994C258.883 250.701 258.756 250.48 258.591 250.332C258.428 250.185 258.236 250.111 258.015 250.111C257.683 250.111 257.418 250.277 257.219 250.608C257.02 250.939 256.92 251.436 256.918 252.097C256.918 252.544 256.962 252.917 257.051 253.216C257.142 253.513 257.27 253.737 257.435 253.886C257.6 254.034 257.793 254.108 258.015 254.108ZM262.333 254.205L262.302 254.517C262.278 254.767 262.23 255.016 262.16 255.264C262.092 255.514 262.02 255.741 261.944 255.943C261.87 256.146 261.811 256.305 261.765 256.42H260.981C261.01 256.309 261.048 256.152 261.098 255.952C261.147 255.753 261.193 255.529 261.237 255.281C261.28 255.033 261.308 254.78 261.319 254.523L261.333 254.205H262.333ZM265.475 255.128C264.987 255.126 264.566 255.006 264.214 254.767C263.864 254.528 263.594 254.183 263.404 253.73C263.217 253.277 263.124 252.733 263.126 252.097C263.126 251.462 263.22 250.921 263.407 250.474C263.597 250.027 263.867 249.687 264.217 249.455C264.569 249.22 264.989 249.102 265.475 249.102C265.962 249.102 266.381 249.22 266.731 249.455C267.083 249.689 267.354 250.03 267.544 250.477C267.733 250.922 267.827 251.462 267.825 252.097C267.825 252.735 267.73 253.28 267.541 253.733C267.353 254.186 267.084 254.531 266.734 254.77C266.384 255.009 265.964 255.128 265.475 255.128ZM265.475 254.108C265.809 254.108 266.075 253.94 266.274 253.605C266.473 253.27 266.571 252.767 266.569 252.097C266.569 251.655 266.524 251.288 266.433 250.994C266.344 250.701 266.217 250.48 266.052 250.332C265.889 250.185 265.697 250.111 265.475 250.111C265.144 250.111 264.879 250.277 264.68 250.608C264.481 250.939 264.381 251.436 264.379 252.097C264.379 252.544 264.423 252.917 264.512 253.216C264.603 253.513 264.731 253.737 264.896 253.886C265.061 254.034 265.254 254.108 265.475 254.108ZM270.983 255.128C270.495 255.126 270.074 255.006 269.722 254.767C269.372 254.528 269.102 254.183 268.912 253.73C268.725 253.277 268.632 252.733 268.634 252.097C268.634 251.462 268.728 250.921 268.915 250.474C269.105 250.027 269.374 249.687 269.725 249.455C270.077 249.22 270.497 249.102 270.983 249.102C271.47 249.102 271.889 249.22 272.239 249.455C272.591 249.689 272.862 250.03 273.051 250.477C273.241 250.922 273.335 251.462 273.333 252.097C273.333 252.735 273.238 253.28 273.049 253.733C272.861 254.186 272.592 254.531 272.242 254.77C271.891 255.009 271.472 255.128 270.983 255.128ZM270.983 254.108C271.317 254.108 271.583 253.94 271.782 253.605C271.98 253.27 272.079 252.767 272.077 252.097C272.077 251.655 272.032 251.288 271.941 250.994C271.852 250.701 271.725 250.48 271.56 250.332C271.397 250.185 271.205 250.111 270.983 250.111C270.652 250.111 270.387 250.277 270.188 250.608C269.989 250.939 269.889 251.436 269.887 252.097C269.887 252.544 269.931 252.917 270.02 253.216C270.111 253.513 270.239 253.737 270.404 253.886C270.569 254.034 270.762 254.108 270.983 254.108Z" fill="black"/>
<rect x="165" y="199" width="59" height="62" rx="2" fill="#D9D9D9"/>
<path d="M188.876 208.545V226H185.185V212.048H185.083L181.086 214.554V211.281L185.407 208.545H188.876ZM199.868 226.384C198.402 226.378 197.141 226.017 196.084 225.301C195.033 224.585 194.223 223.548 193.655 222.19C193.092 220.832 192.814 219.199 192.82 217.29C192.82 215.386 193.101 213.764 193.663 212.423C194.232 211.082 195.041 210.062 196.092 209.364C197.149 208.659 198.408 208.307 199.868 208.307C201.328 208.307 202.584 208.659 203.635 209.364C204.692 210.068 205.504 211.091 206.072 212.432C206.641 213.767 206.922 215.386 206.916 217.29C206.916 219.205 206.632 220.841 206.064 222.199C205.501 223.557 204.695 224.594 203.643 225.31C202.592 226.026 201.334 226.384 199.868 226.384ZM199.868 223.324C200.868 223.324 201.666 222.821 202.263 221.815C202.859 220.81 203.155 219.301 203.149 217.29C203.149 215.966 203.013 214.864 202.74 213.983C202.473 213.102 202.092 212.44 201.598 211.997C201.109 211.554 200.533 211.332 199.868 211.332C198.874 211.332 198.078 211.83 197.482 212.824C196.885 213.818 196.584 215.307 196.578 217.29C196.578 218.631 196.712 219.75 196.979 220.648C197.251 221.54 197.635 222.21 198.129 222.659C198.624 223.102 199.203 223.324 199.868 223.324Z" fill="black"/>
<rect x="168" y="235" width="53" height="10" rx="1" fill="#A8ABAB"/>
<path d="M186.217 243V237.182H188.512C188.953 237.182 189.329 237.266 189.64 237.435C189.951 237.601 190.187 237.833 190.35 238.131C190.515 238.426 190.597 238.767 190.597 239.153C190.597 239.54 190.514 239.881 190.347 240.176C190.181 240.472 189.939 240.702 189.623 240.866C189.308 241.031 188.928 241.114 188.481 241.114H187.018V240.128H188.282C188.519 240.128 188.714 240.087 188.867 240.006C189.022 239.922 189.138 239.808 189.214 239.662C189.291 239.514 189.33 239.345 189.33 239.153C189.33 238.96 189.291 238.792 189.214 238.648C189.138 238.502 189.022 238.389 188.867 238.31C188.712 238.228 188.515 238.188 188.276 238.188H187.447V243H186.217ZM191.396 243V237.182H195.317V238.196H192.626V239.582H195.115V240.597H192.626V241.986H195.328V243H191.396ZM199.451 238.855C199.428 238.626 199.331 238.448 199.158 238.321C198.986 238.194 198.752 238.131 198.457 238.131C198.256 238.131 198.086 238.159 197.948 238.216C197.81 238.271 197.704 238.348 197.63 238.446C197.558 238.545 197.522 238.656 197.522 238.781C197.518 238.885 197.54 238.976 197.587 239.054C197.637 239.132 197.704 239.199 197.789 239.256C197.874 239.311 197.973 239.359 198.085 239.401C198.196 239.44 198.316 239.474 198.442 239.503L198.965 239.628C199.219 239.685 199.452 239.76 199.664 239.855C199.876 239.95 200.06 240.066 200.215 240.205C200.371 240.343 200.491 240.506 200.576 240.693C200.663 240.881 200.708 241.096 200.71 241.338C200.708 241.694 200.617 242.003 200.437 242.264C200.259 242.524 200.001 242.725 199.664 242.869C199.329 243.011 198.924 243.082 198.451 243.082C197.981 243.082 197.572 243.01 197.224 242.866C196.877 242.723 196.606 242.509 196.411 242.227C196.218 241.943 196.117 241.592 196.107 241.173H197.298C197.311 241.368 197.367 241.531 197.465 241.662C197.566 241.791 197.699 241.888 197.866 241.955C198.034 242.019 198.225 242.051 198.437 242.051C198.645 242.051 198.826 242.021 198.979 241.96C199.135 241.9 199.255 241.815 199.34 241.707C199.425 241.599 199.468 241.475 199.468 241.335C199.468 241.205 199.429 241.095 199.352 241.006C199.276 240.917 199.164 240.841 199.016 240.778C198.871 240.716 198.692 240.659 198.479 240.608L197.846 240.449C197.355 240.33 196.968 240.143 196.684 239.889C196.4 239.635 196.259 239.294 196.261 238.864C196.259 238.511 196.353 238.204 196.542 237.94C196.733 237.677 196.996 237.472 197.329 237.324C197.662 237.176 198.041 237.102 198.465 237.102C198.897 237.102 199.274 237.176 199.596 237.324C199.92 237.472 200.172 237.677 200.352 237.94C200.531 238.204 200.624 238.509 200.63 238.855H199.451ZM206.884 240.091C206.884 240.725 206.763 241.265 206.523 241.71C206.284 242.155 205.958 242.495 205.545 242.73C205.134 242.963 204.672 243.08 204.159 243.08C203.642 243.08 203.178 242.962 202.767 242.727C202.356 242.492 202.031 242.152 201.793 241.707C201.554 241.262 201.435 240.723 201.435 240.091C201.435 239.456 201.554 238.917 201.793 238.472C202.031 238.027 202.356 237.687 202.767 237.455C203.178 237.22 203.642 237.102 204.159 237.102C204.672 237.102 205.134 237.22 205.545 237.455C205.958 237.687 206.284 238.027 206.523 238.472C206.763 238.917 206.884 239.456 206.884 240.091ZM205.636 240.091C205.636 239.68 205.575 239.333 205.452 239.051C205.33 238.769 205.159 238.555 204.938 238.409C204.716 238.263 204.456 238.19 204.159 238.19C203.862 238.19 203.602 238.263 203.381 238.409C203.159 238.555 202.987 238.769 202.864 239.051C202.742 239.333 202.682 239.68 202.682 240.091C202.682 240.502 202.742 240.848 202.864 241.131C202.987 241.413 203.159 241.627 203.381 241.773C203.602 241.919 203.862 241.991 204.159 241.991C204.456 241.991 204.716 241.919 204.938 241.773C205.159 241.627 205.33 241.413 205.452 241.131C205.575 240.848 205.636 240.502 205.636 240.091Z" fill="black"/>
<rect x="168" y="247" width="53" height="10" rx="1" fill="#A8ABAB"/>
<path d="M190.015 255.128C189.526 255.126 189.105 255.006 188.753 254.767C188.403 254.528 188.133 254.183 187.944 253.73C187.756 253.277 187.663 252.733 187.665 252.097C187.665 251.462 187.759 250.921 187.946 250.474C188.136 250.027 188.406 249.687 188.756 249.455C189.108 249.22 189.528 249.102 190.015 249.102C190.501 249.102 190.92 249.22 191.27 249.455C191.623 249.689 191.893 250.03 192.083 250.477C192.272 250.922 192.366 251.462 192.364 252.097C192.364 252.735 192.269 253.28 192.08 253.733C191.892 254.186 191.623 254.531 191.273 254.77C190.923 255.009 190.503 255.128 190.015 255.128ZM190.015 254.108C190.348 254.108 190.614 253.94 190.813 253.605C191.012 253.27 191.11 252.767 191.108 252.097C191.108 251.655 191.063 251.288 190.972 250.994C190.883 250.701 190.756 250.48 190.591 250.332C190.428 250.185 190.236 250.111 190.015 250.111C189.683 250.111 189.418 250.277 189.219 250.608C189.02 250.939 188.92 251.436 188.918 252.097C188.918 252.544 188.962 252.917 189.051 253.216C189.142 253.513 189.27 253.737 189.435 253.886C189.6 254.034 189.793 254.108 190.015 254.108ZM194.333 254.205L194.302 254.517C194.278 254.767 194.23 255.016 194.16 255.264C194.092 255.514 194.02 255.741 193.944 255.943C193.87 256.146 193.811 256.305 193.765 256.42H192.981C193.01 256.309 193.048 256.152 193.098 255.952C193.147 255.753 193.193 255.529 193.237 255.281C193.28 255.033 193.308 254.78 193.319 254.523L193.333 254.205H194.333ZM197.475 255.128C196.987 255.126 196.566 255.006 196.214 254.767C195.864 254.528 195.594 254.183 195.404 253.73C195.217 253.277 195.124 252.733 195.126 252.097C195.126 251.462 195.22 250.921 195.407 250.474C195.597 250.027 195.867 249.687 196.217 249.455C196.569 249.22 196.989 249.102 197.475 249.102C197.962 249.102 198.381 249.22 198.731 249.455C199.083 249.689 199.354 250.03 199.544 250.477C199.733 250.922 199.827 251.462 199.825 252.097C199.825 252.735 199.73 253.28 199.541 253.733C199.353 254.186 199.084 254.531 198.734 254.77C198.384 255.009 197.964 255.128 197.475 255.128ZM197.475 254.108C197.809 254.108 198.075 253.94 198.274 253.605C198.473 253.27 198.571 252.767 198.569 252.097C198.569 251.655 198.524 251.288 198.433 250.994C198.344 250.701 198.217 250.48 198.052 250.332C197.889 250.185 197.697 250.111 197.475 250.111C197.144 250.111 196.879 250.277 196.68 250.608C196.481 250.939 196.381 251.436 196.379 252.097C196.379 252.544 196.423 252.917 196.512 253.216C196.603 253.513 196.731 253.737 196.896 253.886C197.061 254.034 197.254 254.108 197.475 254.108ZM202.983 255.128C202.495 255.126 202.074 255.006 201.722 254.767C201.372 254.528 201.102 254.183 200.912 253.73C200.725 253.277 200.632 252.733 200.634 252.097C200.634 251.462 200.728 250.921 200.915 250.474C201.105 250.027 201.374 249.687 201.725 249.455C202.077 249.22 202.497 249.102 202.983 249.102C203.47 249.102 203.889 249.22 204.239 249.455C204.591 249.689 204.862 250.03 205.051 250.477C205.241 250.922 205.335 251.462 205.333 252.097C205.333 252.735 205.238 253.28 205.049 253.733C204.861 254.186 204.592 254.531 204.242 254.77C203.891 255.009 203.472 255.128 202.983 255.128ZM202.983 254.108C203.317 254.108 203.583 253.94 203.782 253.605C203.98 253.27 204.079 252.767 204.077 252.097C204.077 251.655 204.032 251.288 203.941 250.994C203.852 250.701 203.725 250.48 203.56 250.332C203.397 250.185 203.205 250.111 202.983 250.111C202.652 250.111 202.387 250.277 202.188 250.608C201.989 250.939 201.889 251.436 201.887 252.097C201.887 252.544 201.931 252.917 202.02 253.216C202.111 253.513 202.239 253.737 202.404 253.886C202.569 254.034 202.762 254.108 202.983 254.108Z" fill="black"/>
<rect x="97" y="199" width="59" height="62" rx="2" fill="#D9D9D9"/>
<path d="M125.808 208.307C126.706 208.307 127.57 208.457 128.399 208.759C129.234 209.06 129.979 209.54 130.632 210.199C131.291 210.858 131.811 211.733 132.192 212.824C132.578 213.909 132.774 215.241 132.78 216.821C132.78 218.304 132.612 219.628 132.277 220.793C131.947 221.952 131.473 222.938 130.854 223.75C130.234 224.562 129.487 225.182 128.612 225.608C127.737 226.028 126.76 226.239 125.68 226.239C124.516 226.239 123.487 226.014 122.595 225.565C121.703 225.111 120.984 224.494 120.439 223.716C119.899 222.932 119.572 222.051 119.459 221.074H123.098C123.24 221.71 123.538 222.205 123.993 222.557C124.447 222.903 125.01 223.077 125.68 223.077C126.817 223.077 127.68 222.582 128.271 221.594C128.862 220.599 129.161 219.239 129.166 217.511H129.047C128.786 218.023 128.433 218.463 127.99 218.832C127.547 219.196 127.038 219.477 126.464 219.676C125.896 219.875 125.291 219.974 124.649 219.974C123.621 219.974 122.703 219.733 121.896 219.25C121.089 218.767 120.453 218.102 119.987 217.256C119.521 216.409 119.288 215.443 119.288 214.358C119.283 213.188 119.553 212.145 120.098 211.23C120.643 210.315 121.405 209.599 122.382 209.082C123.365 208.56 124.507 208.301 125.808 208.307ZM125.834 211.205C125.26 211.205 124.749 211.341 124.3 211.614C123.857 211.886 123.504 212.253 123.243 212.713C122.987 213.173 122.862 213.687 122.868 214.256C122.868 214.83 122.993 215.347 123.243 215.807C123.499 216.261 123.845 216.625 124.283 216.898C124.726 217.165 125.232 217.298 125.8 217.298C126.226 217.298 126.621 217.219 126.984 217.06C127.348 216.901 127.663 216.682 127.93 216.403C128.203 216.119 128.416 215.793 128.57 215.423C128.723 215.054 128.8 214.662 128.8 214.247C128.794 213.696 128.663 213.19 128.408 212.73C128.152 212.27 127.8 211.901 127.351 211.622C126.902 211.344 126.396 211.205 125.834 211.205Z" fill="black"/>
<rect x="100" y="235" width="53" height="10" rx="1" fill="#A8ABAB"/>
<path d="M118.217 243V237.182H120.512C120.953 237.182 121.329 237.266 121.64 237.435C121.951 237.601 122.187 237.833 122.35 238.131C122.515 238.426 122.597 238.767 122.597 239.153C122.597 239.54 122.514 239.881 122.347 240.176C122.181 240.472 121.939 240.702 121.623 240.866C121.308 241.031 120.928 241.114 120.481 241.114H119.018V240.128H120.282C120.519 240.128 120.714 240.087 120.867 240.006C121.022 239.922 121.138 239.808 121.214 239.662C121.291 239.514 121.33 239.345 121.33 239.153C121.33 238.96 121.291 238.792 121.214 238.648C121.138 238.502 121.022 238.389 120.867 238.31C120.712 238.228 120.515 238.188 120.276 238.188H119.447V243H118.217ZM123.396 243V237.182H127.317V238.196H124.626V239.582H127.115V240.597H124.626V241.986H127.328V243H123.396ZM131.451 238.855C131.428 238.626 131.331 238.448 131.158 238.321C130.986 238.194 130.752 238.131 130.457 238.131C130.256 238.131 130.086 238.159 129.948 238.216C129.81 238.271 129.704 238.348 129.63 238.446C129.558 238.545 129.522 238.656 129.522 238.781C129.518 238.885 129.54 238.976 129.587 239.054C129.637 239.132 129.704 239.199 129.789 239.256C129.874 239.311 129.973 239.359 130.085 239.401C130.196 239.44 130.316 239.474 130.442 239.503L130.965 239.628C131.219 239.685 131.452 239.76 131.664 239.855C131.876 239.95 132.06 240.066 132.215 240.205C132.371 240.343 132.491 240.506 132.576 240.693C132.663 240.881 132.708 241.096 132.71 241.338C132.708 241.694 132.617 242.003 132.437 242.264C132.259 242.524 132.001 242.725 131.664 242.869C131.329 243.011 130.924 243.082 130.451 243.082C129.981 243.082 129.572 243.01 129.224 242.866C128.877 242.723 128.606 242.509 128.411 242.227C128.218 241.943 128.117 241.592 128.107 241.173H129.298C129.311 241.368 129.367 241.531 129.465 241.662C129.566 241.791 129.699 241.888 129.866 241.955C130.034 242.019 130.225 242.051 130.437 242.051C130.645 242.051 130.826 242.021 130.979 241.96C131.135 241.9 131.255 241.815 131.34 241.707C131.425 241.599 131.468 241.475 131.468 241.335C131.468 241.205 131.429 241.095 131.352 241.006C131.276 240.917 131.164 240.841 131.016 240.778C130.871 240.716 130.692 240.659 130.479 240.608L129.846 240.449C129.355 240.33 128.968 240.143 128.684 239.889C128.4 239.635 128.259 239.294 128.261 238.864C128.259 238.511 128.353 238.204 128.542 237.94C128.733 237.677 128.996 237.472 129.329 237.324C129.662 237.176 130.041 237.102 130.465 237.102C130.897 237.102 131.274 237.176 131.596 237.324C131.92 237.472 132.172 237.677 132.352 237.94C132.531 238.204 132.624 238.509 132.63 238.855H131.451ZM138.884 240.091C138.884 240.725 138.763 241.265 138.523 241.71C138.284 242.155 137.958 242.495 137.545 242.73C137.134 242.963 136.672 243.08 136.159 243.08C135.642 243.08 135.178 242.962 134.767 242.727C134.356 242.492 134.031 242.152 133.793 241.707C133.554 241.262 133.435 240.723 133.435 240.091C133.435 239.456 133.554 238.917 133.793 238.472C134.031 238.027 134.356 237.687 134.767 237.455C135.178 237.22 135.642 237.102 136.159 237.102C136.672 237.102 137.134 237.22 137.545 237.455C137.958 237.687 138.284 238.027 138.523 238.472C138.763 238.917 138.884 239.456 138.884 240.091ZM137.636 240.091C137.636 239.68 137.575 239.333 137.452 239.051C137.33 238.769 137.159 238.555 136.938 238.409C136.716 238.263 136.456 238.19 136.159 238.19C135.862 238.19 135.602 238.263 135.381 238.409C135.159 238.555 134.987 238.769 134.864 239.051C134.742 239.333 134.682 239.68 134.682 240.091C134.682 240.502 134.742 240.848 134.864 241.131C134.987 241.413 135.159 241.627 135.381 241.773C135.602 241.919 135.862 241.991 136.159 241.991C136.456 241.991 136.716 241.919 136.938 241.773C137.159 241.627 137.33 241.413 137.452 241.131C137.575 240.848 137.636 240.502 137.636 240.091Z" fill="black"/>
<rect x="100" y="247" width="53" height="10" rx="1" fill="#A8ABAB"/>
<path d="M122.015 255.128C121.526 255.126 121.105 255.006 120.753 254.767C120.403 254.528 120.133 254.183 119.944 253.73C119.756 253.277 119.663 252.733 119.665 252.097C119.665 251.462 119.759 250.921 119.946 250.474C120.136 250.027 120.406 249.687 120.756 249.455C121.108 249.22 121.528 249.102 122.015 249.102C122.501 249.102 122.92 249.22 123.27 249.455C123.623 249.689 123.893 250.03 124.083 250.477C124.272 250.922 124.366 251.462 124.364 252.097C124.364 252.735 124.269 253.28 124.08 253.733C123.892 254.186 123.623 254.531 123.273 254.77C122.923 255.009 122.503 255.128 122.015 255.128ZM122.015 254.108C122.348 254.108 122.614 253.94 122.813 253.605C123.012 253.27 123.11 252.767 123.108 252.097C123.108 251.655 123.063 251.288 122.972 250.994C122.883 250.701 122.756 250.48 122.591 250.332C122.428 250.185 122.236 250.111 122.015 250.111C121.683 250.111 121.418 250.277 121.219 250.608C121.02 250.939 120.92 251.436 120.918 252.097C120.918 252.544 120.962 252.917 121.051 253.216C121.142 253.513 121.27 253.737 121.435 253.886C121.6 254.034 121.793 254.108 122.015 254.108ZM126.333 254.205L126.302 254.517C126.278 254.767 126.23 255.016 126.16 255.264C126.092 255.514 126.02 255.741 125.944 255.943C125.87 256.146 125.811 256.305 125.765 256.42H124.981C125.01 256.309 125.048 256.152 125.098 255.952C125.147 255.753 125.193 255.529 125.237 255.281C125.28 255.033 125.308 254.78 125.319 254.523L125.333 254.205H126.333ZM129.475 255.128C128.987 255.126 128.566 255.006 128.214 254.767C127.864 254.528 127.594 254.183 127.404 253.73C127.217 253.277 127.124 252.733 127.126 252.097C127.126 251.462 127.22 250.921 127.407 250.474C127.597 250.027 127.867 249.687 128.217 249.455C128.569 249.22 128.989 249.102 129.475 249.102C129.962 249.102 130.381 249.22 130.731 249.455C131.083 249.689 131.354 250.03 131.544 250.477C131.733 250.922 131.827 251.462 131.825 252.097C131.825 252.735 131.73 253.28 131.541 253.733C131.353 254.186 131.084 254.531 130.734 254.77C130.384 255.009 129.964 255.128 129.475 255.128ZM129.475 254.108C129.809 254.108 130.075 253.94 130.274 253.605C130.473 253.27 130.571 252.767 130.569 252.097C130.569 251.655 130.524 251.288 130.433 250.994C130.344 250.701 130.217 250.48 130.052 250.332C129.889 250.185 129.697 250.111 129.475 250.111C129.144 250.111 128.879 250.277 128.68 250.608C128.481 250.939 128.381 251.436 128.379 252.097C128.379 252.544 128.423 252.917 128.512 253.216C128.603 253.513 128.731 253.737 128.896 253.886C129.061 254.034 129.254 254.108 129.475 254.108ZM134.983 255.128C134.495 255.126 134.074 255.006 133.722 254.767C133.372 254.528 133.102 254.183 132.912 253.73C132.725 253.277 132.632 252.733 132.634 252.097C132.634 251.462 132.728 250.921 132.915 250.474C133.105 250.027 133.374 249.687 133.725 249.455C134.077 249.22 134.497 249.102 134.983 249.102C135.47 249.102 135.889 249.22 136.239 249.455C136.591 249.689 136.862 250.03 137.051 250.477C137.241 250.922 137.335 251.462 137.333 252.097C137.333 252.735 137.238 253.28 137.049 253.733C136.861 254.186 136.592 254.531 136.242 254.77C135.891 255.009 135.472 255.128 134.983 255.128ZM134.983 254.108C135.317 254.108 135.583 253.94 135.782 253.605C135.98 253.27 136.079 252.767 136.077 252.097C136.077 251.655 136.032 251.288 135.941 250.994C135.852 250.701 135.725 250.48 135.56 250.332C135.397 250.185 135.205 250.111 134.983 250.111C134.652 250.111 134.387 250.277 134.188 250.608C133.989 250.939 133.889 251.436 133.887 252.097C133.887 252.544 133.931 252.917 134.02 253.216C134.111 253.513 134.239 253.737 134.404 253.886C134.569 254.034 134.762 254.108 134.983 254.108Z" fill="black"/>
<path d="M56.6321 97H48.3821V73.7273H56.7003C59.0412 73.7273 61.0563 74.1932 62.7457 75.125C64.4351 76.0492 65.7344 77.3788 66.6435 79.1136C67.5601 80.8485 68.0185 82.9242 68.0185 85.3409C68.0185 87.7652 67.5601 89.8485 66.6435 91.5909C65.7344 93.3333 64.4276 94.6705 62.723 95.6023C61.026 96.5341 58.9957 97 56.6321 97ZM53.3026 92.7841H56.4276C57.8821 92.7841 59.1056 92.5265 60.098 92.0114C61.098 91.4886 61.848 90.6818 62.348 89.5909C62.8556 88.4924 63.1094 87.0758 63.1094 85.3409C63.1094 83.6212 62.8556 82.2159 62.348 81.125C61.848 80.0341 61.1018 79.2311 60.1094 78.7159C59.117 78.2008 57.8935 77.9432 56.4389 77.9432H53.3026V92.7841Z" fill="#FE0000"/>
<path d="M132.163 80.4205C132.072 79.5038 131.682 78.7917 130.993 78.2841C130.304 77.7765 129.368 77.5227 128.186 77.5227C127.383 77.5227 126.705 77.6364 126.152 77.8636C125.599 78.0833 125.175 78.3902 124.879 78.7841C124.591 79.178 124.447 79.625 124.447 80.125C124.432 80.5417 124.519 80.9053 124.709 81.2159C124.906 81.5265 125.175 81.7955 125.516 82.0227C125.857 82.2424 126.25 82.4356 126.697 82.6023C127.144 82.7614 127.622 82.8977 128.129 83.0114L130.22 83.5114C131.235 83.7386 132.167 84.0417 133.016 84.4205C133.864 84.7992 134.599 85.2652 135.22 85.8182C135.841 86.3712 136.322 87.0227 136.663 87.7727C137.012 88.5227 137.19 89.3826 137.197 90.3523C137.19 91.7765 136.826 93.0114 136.107 94.0568C135.394 95.0947 134.364 95.9015 133.016 96.4773C131.675 97.0455 130.057 97.3295 128.163 97.3295C126.285 97.3295 124.648 97.0417 123.254 96.4659C121.868 95.8902 120.785 95.0379 120.004 93.9091C119.232 92.7727 118.826 91.3674 118.788 89.6932H123.55C123.603 90.4735 123.826 91.125 124.22 91.6477C124.622 92.1629 125.156 92.553 125.822 92.8182C126.497 93.0758 127.258 93.2045 128.107 93.2045C128.94 93.2045 129.663 93.0833 130.277 92.8409C130.898 92.5985 131.379 92.2614 131.72 91.8295C132.061 91.3977 132.232 90.9015 132.232 90.3409C132.232 89.8182 132.076 89.3788 131.766 89.0227C131.463 88.6667 131.016 88.3636 130.425 88.1136C129.841 87.8636 129.125 87.6364 128.277 87.4318L125.743 86.7955C123.781 86.3182 122.232 85.572 121.095 84.5568C119.959 83.5417 119.394 82.1742 119.402 80.4545C119.394 79.0455 119.769 77.8144 120.527 76.7614C121.292 75.7083 122.341 74.8864 123.675 74.2955C125.008 73.7045 126.523 73.4091 128.22 73.4091C129.947 73.4091 131.455 73.7045 132.743 74.2955C134.038 74.8864 135.046 75.7083 135.766 76.7614C136.485 77.8144 136.857 79.0341 136.879 80.4205H132.163Z" fill="black"/>
<path d="M261.291 88.9091H265.473L267.575 91.6136L269.643 94.0227L273.541 98.9091H268.95L266.268 95.6136L264.893 93.6591L261.291 88.9091ZM273.893 85.3636C273.893 87.9015 273.412 90.0606 272.45 91.8409C271.496 93.6212 270.193 94.9811 268.541 95.9205C266.897 96.8523 265.049 97.3182 262.996 97.3182C260.928 97.3182 259.071 96.8485 257.428 95.9091C255.784 94.9697 254.484 93.6098 253.53 91.8295C252.575 90.0492 252.098 87.8939 252.098 85.3636C252.098 82.8258 252.575 80.6667 253.53 78.8864C254.484 77.1061 255.784 75.75 257.428 74.8182C259.071 73.8788 260.928 73.4091 262.996 73.4091C265.049 73.4091 266.897 73.8788 268.541 74.8182C270.193 75.75 271.496 77.1061 272.45 78.8864C273.412 80.6667 273.893 82.8258 273.893 85.3636ZM268.905 85.3636C268.905 83.7197 268.659 82.3333 268.166 81.2045C267.681 80.0758 266.996 79.2197 266.109 78.6364C265.223 78.053 264.185 77.7614 262.996 77.7614C261.806 77.7614 260.768 78.053 259.882 78.6364C258.996 79.2197 258.306 80.0758 257.814 81.2045C257.329 82.3333 257.087 83.7197 257.087 85.3636C257.087 87.0076 257.329 88.3939 257.814 89.5227C258.306 90.6515 258.996 91.5076 259.882 92.0909C260.768 92.6742 261.806 92.9659 262.996 92.9659C264.185 92.9659 265.223 92.6742 266.109 92.0909C266.996 91.5076 267.681 90.6515 268.166 89.5227C268.659 88.3939 268.905 87.0076 268.905 85.3636Z" fill="black"/>
<path d="M184.449 77.7841V73.7273H203.562V77.7841H196.438V97H191.574V77.7841H184.449Z" fill="black"/>
<g filter="url(#filter0_d_5_276)">
<path d="M110 168L95.9888 142.761L81.1366 167.514L110 168ZM13.7138 113.144L89.4202 158.568L91.9926 154.28L16.2862 108.856L13.7138 113.144Z" fill="#FF0000"/>
</g>
<defs>
<filter id="filter0_d_5_276" x="9.71376" y="108.856" width="104.286" height="67.1437" filterUnits="userSpaceOnUse" color-interpolation-filters="sRGB">
<feFlood flood-opacity="0" result="BackgroundImageFix"/>
<feColorMatrix in="SourceAlpha" type="matrix" values="0 0 0 0 0 0 0 0 0 0 0 0 0 0 0 0 0 0 127 0" result="hardAlpha"/>
<feOffset dy="4"/>
<feGaussianBlur stdDeviation="2"/>
<feComposite in2="hardAlpha" operator="out"/>
<feColorMatrix type="matrix" values="0 0 0 0 0 0 0 0 0 0 0 0 0 0 0 0 0 0 0.25 0"/>
<feBlend mode="normal" in2="BackgroundImageFix" result="effect1_dropShadow_5_276"/>
<feBlend mode="normal" in="SourceGraphic" in2="effect1_dropShadow_5_276" result="shape"/>
</filter>
</defs>
</svg>
