<svg version="1.1" xmlns="http://www.w3.org/2000/svg" xmlns:xlink="http://www.w3.org/1999/xlink" width="512" height="512" viewBox="0,0,256,256"><g fill="#ffffff" fill-rule="none" stroke="none" stroke-width="1" stroke-linecap="butt" stroke-linejoin="miter" stroke-miterlimit="10" stroke-dasharray="" stroke-dashoffset="0" font-family="none" font-weight="none" font-size="none" text-anchor="none" style="mix-blend-mode: normal"><g transform="translate(-0.00533,-0.00124) scale(10.66667,10.66667)"><g><path d="M12,0.296c-6.627,0 -12,5.372 -12,12c0,5.302 3.438,9.8 8.206,11.387c0.6,0.111 0.82,-0.26 0.82,-0.577c0,-0.286 -0.011,-1.231 -0.016,-2.234c-3.338,0.726 -4.043,-1.416 -4.043,-1.416c-0.546,-1.387 -1.332,-1.756 -1.332,-1.756c-1.089,-0.745 0.082,-0.729 0.082,-0.729c1.205,0.085 1.839,1.237 1.839,1.237c1.07,1.834 2.807,1.304 3.492,0.997c0.108,-0.776 0.419,-1.305 0.762,-1.605c-2.665,-0.303 -5.467,-1.332 -5.467,-5.93c0,-1.31 0.469,-2.381 1.237,-3.221c-0.125,-0.303 -0.536,-1.523 0.116,-3.176c0,0 1.008,-0.322 3.301,1.23c0.957,-0.266 1.983,-0.399 3.003,-0.404c1.02,0.005 2.047,0.138 3.006,0.404c2.29,-1.553 3.297,-1.23 3.297,-1.23c0.653,1.653 0.242,2.873 0.118,3.176c0.769,0.84 1.235,1.911 1.235,3.221c0,4.609 -2.807,5.624 -5.479,5.921c0.43,0.372 0.814,1.103 0.814,2.222c0,1.606 -0.014,2.898 -0.014,3.293c0,0.319 0.216,0.694 0.824,0.576c4.766,-1.589 8.2,-6.085 8.2,-11.385c-0.001,-6.628 -5.374,-12.001 -12.001,-12.001z" fill-rule="evenodd"></path><path d="M4.545,17.526c-0.026,0.06 -0.12,0.078 -0.206,0.037c-0.087,-0.039 -0.136,-0.121 -0.108,-0.18c0.026,-0.061 0.12,-0.078 0.207,-0.037c0.087,0.038 0.137,0.12 0.107,0.18z" fill-rule="nonzero"></path><path d="M5.031,18.068c-0.057,0.053 -0.169,0.028 -0.245,-0.055c-0.079,-0.084 -0.093,-0.196 -0.035,-0.249c0.059,-0.053 0.167,-0.028 0.246,0.056c0.079,0.083 0.094,0.194 0.034,0.248z" fill-rule="nonzero"></path><path d="M5.504,18.759c-0.074,0.051 -0.194,0.003 -0.268,-0.103c-0.074,-0.107 -0.074,-0.235 0.002,-0.286c0.074,-0.051 0.193,-0.005 0.268,0.101c0.073,0.108 0.073,0.236 -0.002,0.288z" fill-rule="nonzero"></path><path d="M6.152,19.427c-0.066,0.073 -0.206,0.053 -0.308,-0.046c-0.105,-0.097 -0.134,-0.234 -0.068,-0.307c0.067,-0.073 0.208,-0.052 0.311,0.046c0.104,0.097 0.135,0.235 0.065,0.307z" fill-rule="nonzero"></path><path d="M7.047,19.814c-0.029,0.094 -0.164,0.137 -0.3,0.097c-0.136,-0.041 -0.225,-0.151 -0.197,-0.246c0.028,-0.095 0.164,-0.139 0.301,-0.096c0.135,0.04 0.224,0.15 0.196,0.245z" fill-rule="nonzero"></path><path d="M8.029,19.886c0.003,0.099 -0.112,0.181 -0.255,0.183c-0.143,0.003 -0.26,-0.077 -0.261,-0.174c0,-0.1 0.113,-0.181 0.256,-0.184c0.143,-0.003 0.26,0.077 0.26,0.175z" fill-rule="nonzero"></path><path d="M8.943,19.731c0.017,0.096 -0.082,0.196 -0.224,0.222c-0.139,0.026 -0.268,-0.034 -0.286,-0.13c-0.017,-0.099 0.084,-0.198 0.223,-0.224c0.141,-0.025 0.269,0.033 0.287,0.132z" fill-rule="nonzero"></path></g></g></g></svg>