<svg version="1.1" xmlns="http://www.w3.org/2000/svg" xmlns:xlink="http://www.w3.org/1999/xlink" width="512" height="512" viewBox="0,0,256,256"><g fill="#ffffff" fill-rule="nonzero" stroke="none" stroke-width="1" stroke-linecap="butt" stroke-linejoin="miter" stroke-miterlimit="10" stroke-dasharray="" stroke-dashoffset="0" font-family="none" font-weight="none" font-size="none" text-anchor="none" style="mix-blend-mode: normal"><g transform="scale(10.66667,10.66667)"><g><path d="M12,2.162c3.204,0 3.584,0.012 4.849,0.07c1.308,0.06 2.655,0.358 3.608,1.311c0.962,0.962 1.251,2.296 1.311,3.608c0.058,1.265 0.07,1.645 0.07,4.849c0,3.204 -0.012,3.584 -0.07,4.849c-0.059,1.301 -0.364,2.661 -1.311,3.608c-0.962,0.962 -2.295,1.251 -3.608,1.311c-1.265,0.058 -1.645,0.07 -4.849,0.07c-3.204,0 -3.584,-0.012 -4.849,-0.07c-1.291,-0.059 -2.669,-0.371 -3.608,-1.311c-0.957,-0.957 -1.251,-2.304 -1.311,-3.608c-0.058,-1.265 -0.07,-1.645 -0.07,-4.849c0,-3.204 0.012,-3.584 0.07,-4.849c0.059,-1.296 0.367,-2.664 1.311,-3.608c0.96,-0.96 2.299,-1.251 3.608,-1.311c1.265,-0.058 1.645,-0.07 4.849,-0.07M12,0c-3.259,0 -3.668,0.014 -4.948,0.072c-1.855,0.085 -3.697,0.601 -5.038,1.942c-1.346,1.346 -1.857,3.184 -1.942,5.038c-0.058,1.28 -0.072,1.689 -0.072,4.948c0,3.259 0.014,3.668 0.072,4.948c0.085,1.853 0.603,3.7 1.942,5.038c1.345,1.345 3.186,1.857 5.038,1.942c1.28,0.058 1.689,0.072 4.948,0.072c3.259,0 3.668,-0.014 4.948,-0.072c1.854,-0.085 3.698,-0.602 5.038,-1.942c1.347,-1.347 1.857,-3.184 1.942,-5.038c0.058,-1.28 0.072,-1.689 0.072,-4.948c0,-3.259 -0.014,-3.668 -0.072,-4.948c-0.085,-1.855 -0.602,-3.698 -1.942,-5.038c-1.343,-1.343 -3.189,-1.858 -5.038,-1.942c-1.28,-0.058 -1.689,-0.072 -4.948,-0.072z"></path><path d="M12,5.838c-3.403,0 -6.162,2.759 -6.162,6.162c0,3.403 2.759,6.162 6.162,6.162c3.403,0 6.162,-2.759 6.162,-6.162c0,-3.403 -2.759,-6.162 -6.162,-6.162zM12,16c-2.209,0 -4,-1.791 -4,-4c0,-2.209 1.791,-4 4,-4c2.209,0 4,1.791 4,4c0,2.209 -1.791,4 -4,4z"></path><circle cx="18.406" cy="5.594" r="1.44"></circle></g></g></g></svg>